<?xml version="1.0" encoding="utf-8"?>
<!-- Generator: Adobe Illustrator 26.1.0, SVG Export Plug-In . SVG Version: 6.00 Build 0)  -->
<svg version="1.1" xmlns="http://www.w3.org/2000/svg" xmlns:xlink="http://www.w3.org/1999/xlink" x="0px" y="0px"
	 viewBox="0 0 120 60" style="enable-background:new 0 0 120 60;" xml:space="preserve">
<style type="text/css">
	.st0{fill:url(#SVGID_1_);}
	.st1{fill:url(#SVGID_00000045582720082148238920000015948211172815707811_);}
	.st2{fill:url(#SVGID_00000017479211262961258440000001678423618796796545_);}
	.st3{fill:url(#SVGID_00000055702688634812654960000012821090991952995509_);}
	.st4{fill:url(#SVGID_00000110436454525943239880000002139616649066061489_);}
	.st5{fill:url(#SVGID_00000162325261184112763090000001611811463993725625_);}
	.st6{fill:url(#SVGID_00000084504825426951191100000004490714156589545401_);}
	.st7{fill:url(#SVGID_00000028288339650789142170000003518125859273347971_);}
	.st8{fill:url(#SVGID_00000064345081251832002880000003210370086109720511_);}
	.st9{fill:url(#SVGID_00000124138608914183935020000005201932206553498030_);}
	.st10{fill:url(#SVGID_00000158000128489814758040000008172414147077050795_);}
	.st11{fill:url(#SVGID_00000094592250378665080540000017794006314426902418_);}
	.st12{fill:url(#SVGID_00000085963722149831166330000002314351438633526658_);}
	.st13{fill:url(#SVGID_00000072980355871416102280000009370499834478325408_);}
	.st14{fill:url(#SVGID_00000119831976575185788130000012629229530131379626_);}
	.st15{fill:url(#SVGID_00000139277630948575530280000016262451237195297956_);}
	.st16{fill:url(#SVGID_00000063627479297311062630000016369216735381727617_);}
	.st17{fill:url(#SVGID_00000039837843275274637290000010441350030777292456_);}
	.st18{fill:url(#SVGID_00000143586832761542297660000007769113378108034477_);}
	.st19{fill:url(#SVGID_00000054267972818864675430000005263119739743006378_);}
	.st20{fill:url(#SVGID_00000143584682705177914920000002859691516462950023_);}
	.st21{fill:url(#SVGID_00000062187221749336032280000009368412024464198018_);}
	.st22{fill:url(#SVGID_00000166651350280660891700000000288057350610032054_);}
	.st23{fill:url(#SVGID_00000145763497645038246300000000042347297674571672_);}
	.st24{fill:url(#SVGID_00000057855035710506477300000018156071098901537408_);}
	.st25{fill:url(#SVGID_00000034077550854417441430000017494243508687971251_);}
	.st26{fill:url(#SVGID_00000058582880393260915860000014719915694541046155_);}
	.st27{fill:url(#SVGID_00000021108482731753474800000017619592463347898024_);}
	.st28{fill:url(#SVGID_00000128486370369319119850000004093095173163082121_);}
	.st29{fill:url(#SVGID_00000167384353729831360960000004723507994050396341_);}
	.st30{fill:url(#SVGID_00000039817116892870302480000018386776386375714694_);}
	.st31{fill:url(#SVGID_00000113352643149171868590000008518412236866291642_);}
	.st32{fill:url(#SVGID_00000077310467102501727000000001427809685999575958_);}
	.st33{fill:url(#SVGID_00000000203654637635181470000008668809862042343322_);}
	.st34{fill:url(#SVGID_00000175299027622045992370000007909300945125366700_);}
	.st35{fill:url(#SVGID_00000088826158564053830780000008207821449457100685_);}
	.st36{fill:url(#SVGID_00000120537130192890206190000000554685217199280011_);}
	.st37{fill:url(#SVGID_00000066516423956834799340000009700206798945508257_);}
	.st38{fill:url(#SVGID_00000138544665384164589430000010230562110291229579_);}
	.st39{fill:url(#SVGID_00000052078233345097273130000012957261886700129980_);}
	.st40{fill:url(#SVGID_00000123438558502791993160000003047173020404772008_);}
	.st41{fill:url(#SVGID_00000041271250858357633710000013017316663378028443_);}
</style>
<g id="BACKGROUND">
</g>
<g id="OBJECTS">
	<g>
		<g>
			
				<linearGradient id="SVGID_1_" gradientUnits="userSpaceOnUse" x1="-35.3623" y1="31.8355" x2="124.6609" y2="31.8355" gradientTransform="matrix(0.9969 7.890000e-02 -7.890000e-02 0.9969 4.1459 -7.16)">
				<stop  offset="0" style="stop-color:#00A8DE"/>
				<stop  offset="0.2" style="stop-color:#333391"/>
				<stop  offset="0.4" style="stop-color:#E91388"/>
				<stop  offset="0.6" style="stop-color:#EB2D2E"/>
				<stop  offset="0.8" style="stop-color:#FDE92B"/>
				<stop  offset="1" style="stop-color:#009E54"/>
			</linearGradient>
			<path class="st0" d="M120,41.7c-1.2,1.2-2.4,2-3.6,2.1c-3.7,0.5-7.4-3.4-11.4-12.2c-0.9-1.9-1.7-3.9-2.5-5.9
				c-2.2-5.2-4.4-10.5-7.1-14.1c-2.7-3.6-6-5.3-9.4-4.9c-5.6,0.6-11.3,6.6-15.6,16.5c-1.3,3-2.6,6.5-3.8,9.8
				c-2.4,6.6-4.9,13.4-8,17.1c-1.8,2.2-3.8,3.2-5.8,3c0,0,0,0-0.1,0c-2.9-0.3-6.1-3-8.8-7.8c-2.1-3.6-3.9-8-5.7-12.3
				c-1.7-4.1-3.5-8.4-5.5-11.9c-2-3.6-5.2-7.9-9-8.3c-2-0.2-4,0.7-5.8,2.7c-2.8,3.1-5.2,8.7-7.5,14.2c-2.5,5.9-5.1,12-8.2,14.8
				c-0.7,0.7-1.5,1.1-2.2,1.4V46c0.8-0.3,1.6-0.7,2.3-1.4c3.1-2.8,5.7-8.9,8.2-14.8c2.3-5.4,4.7-11.1,7.5-14.1
				c1.8-2,3.7-2.9,5.7-2.7c1.5,0.2,3.1,1,4.7,2.5c1.5,1.4,2.9,3.3,4.2,5.7c2,3.5,3.8,7.8,5.5,11.9c1.8,4.3,3.7,8.7,5.7,12.3
				c1.3,2.3,2.7,4.2,4.2,5.5c1.6,1.5,3.2,2.3,4.7,2.4c0,0,0,0,0.1,0c2.1,0.2,4.1-0.9,5.9-3.1c3.1-3.7,5.6-10.6,8-17.1
				c1.2-3.3,2.5-6.8,3.8-9.8C74.9,13.5,80.5,7.5,86,6.9c3.4-0.4,6.6,1.3,9.3,4.8c2.7,3.6,4.9,8.9,7.1,14c0.8,2,1.7,4,2.5,5.9
				c1.8,4,3.5,6.9,5.2,9c2.1,2.5,4.2,3.6,6.3,3.4c1.2-0.1,2.4-0.9,3.6-2.1V41.7z"/>
		</g>
		<g>
			
				<linearGradient id="SVGID_00000121254104167815466660000000078270795500858498_" gradientUnits="userSpaceOnUse" x1="-34.5644" y1="31.5074" x2="125.5915" y2="31.5074" gradientTransform="matrix(0.9969 7.890000e-02 -7.890000e-02 0.9969 4.1459 -7.16)">
				<stop  offset="0" style="stop-color:#00A8DE"/>
				<stop  offset="0.2" style="stop-color:#333391"/>
				<stop  offset="0.4" style="stop-color:#E91388"/>
				<stop  offset="0.6" style="stop-color:#EB2D2E"/>
				<stop  offset="0.8" style="stop-color:#FDE92B"/>
				<stop  offset="1" style="stop-color:#009E54"/>
			</linearGradient>
			<path style="fill:url(#SVGID_00000121254104167815466660000000078270795500858498_);" d="M120,43c-0.9,0.7-1.8,1.1-2.6,1.2
				c-3.7,0.4-7.3-3.4-11.2-12.2c-0.9-1.9-1.7-4-2.6-6c-2.2-5.2-4.4-10.6-7.1-14.2c-2.7-3.6-5.9-5.3-9.3-4.9
				c-5.5,0.6-11,6.4-15.3,15.9c-1.4,3-2.6,6.4-3.9,9.7c-2.4,6.4-4.9,13.1-8,16.8c-1.9,2.2-3.8,3.3-5.9,3.1c0,0,0,0,0,0
				c-3.7-0.3-6.7-4.1-8.6-7.3c-2.1-3.4-4-7.7-5.8-11.8c-1.7-4-3.5-8.1-5.5-11.5c-2.1-3.5-5.3-7.8-9.2-8.2c-2-0.2-3.9,0.6-5.7,2.5
				c-2.8,3-5.2,8.4-7.5,13.7c-2.5,5.7-5.1,11.6-8.2,14.3c-1.1,1-2.3,1.6-3.5,1.6v0.1c1.2-0.1,2.5-0.6,3.6-1.7
				c3.1-2.7,5.7-8.7,8.2-14.4c2.3-5.3,4.7-10.7,7.5-13.7c1.8-1.9,3.6-2.7,5.6-2.5c3.8,0.4,7,4.7,9.1,8.2c2,3.4,3.8,7.5,5.5,11.5
				c1.8,4.1,3.7,8.4,5.8,11.9c1.9,3.2,5,7.1,8.7,7.4c0,0,0,0,0,0c2.1,0.2,4.2-0.9,6-3.2c3.1-3.7,5.6-10.4,8-16.8
				c1.2-3.3,2.5-6.7,3.9-9.7c4.3-9.5,9.8-15.2,15.2-15.8c3.4-0.4,6.5,1.3,9.2,4.9c2.7,3.6,4.9,9,7.1,14.2c0.8,2,1.7,4.1,2.6,6
				c1.8,4,3.5,6.9,5.2,8.9c2.1,2.5,4.2,3.6,6.2,3.4c0.9-0.1,1.7-0.5,2.6-1.2V43z"/>
		</g>
		<g>
			
				<linearGradient id="SVGID_00000099638899026483281100000013739902589138556576_" gradientUnits="userSpaceOnUse" x1="-33.7665" y1="31.1825" x2="126.521" y2="31.1825" gradientTransform="matrix(0.9969 7.890000e-02 -7.890000e-02 0.9969 4.1459 -7.16)">
				<stop  offset="0" style="stop-color:#00A8DE"/>
				<stop  offset="0.2" style="stop-color:#333391"/>
				<stop  offset="0.4" style="stop-color:#E91388"/>
				<stop  offset="0.6" style="stop-color:#EB2D2E"/>
				<stop  offset="0.8" style="stop-color:#FDE92B"/>
				<stop  offset="1" style="stop-color:#009E54"/>
			</linearGradient>
			<path style="fill:url(#SVGID_00000099638899026483281100000013739902589138556576_);" d="M120,44.1c-0.6,0.3-1.1,0.5-1.7,0.6
				c-3.7,0.4-7.2-3.5-11.1-12.1c-0.9-2-1.8-4.1-2.6-6.1c-2.2-5.2-4.4-10.6-7.1-14.4c-2.6-3.6-5.8-5.3-9.2-5
				c-2.6,0.3-5.3,1.7-7.9,4.3c-2.6,2.7-5.1,6.4-7.2,11c-1.4,2.9-2.7,6.3-3.9,9.6c-2.4,6.3-4.9,12.8-7.9,16.4c-1.9,2.3-3.9,3.4-6,3.2
				c-3.6-0.2-6.6-3.8-8.5-6.8c-2.1-3.3-4-7.4-5.8-11.3c-1.8-3.8-3.6-7.8-5.6-11.1c-2.1-3.5-5.5-7.7-9.3-8.2c-2-0.2-3.8,0.6-5.6,2.3
				c-2.8,2.8-5.2,8.1-7.6,13.3c-2.5,5.5-5.1,11.2-8.2,13.8c-1.5,1.3-3,1.8-4.6,1.6c-0.1,0-0.1,0-0.2,0v0.1c0.1,0,0.1,0,0.2,0
				c1.6,0.2,3.2-0.3,4.7-1.6c3.1-2.7,5.7-8.4,8.2-13.9c2.3-5.1,4.8-10.4,7.6-13.2c1.7-1.7,3.6-2.5,5.5-2.3c3.8,0.4,7.1,4.7,9.2,8.1
				c2,3.3,3.8,7.3,5.6,11.1c1.8,4,3.7,8.1,5.8,11.3c1.9,3,4.9,6.6,8.5,6.9c0,0,0.1,0,0.1,0c2.1,0.1,4.2-1,6.1-3.3
				c3-3.7,5.5-10.2,7.9-16.4c1.3-3.3,2.6-6.7,3.9-9.6c4.2-9.2,9.7-14.7,15-15.3c3.3-0.3,6.5,1.4,9,4.9c2.7,3.7,5,9.1,7.1,14.3
				c0.8,2,1.7,4.1,2.6,6.1c3.6,8,6.9,11.9,10.4,12.2c0.3,0,0.6,0,0.9,0c0.5-0.1,1.1-0.2,1.7-0.5V44.1z"/>
		</g>
		<g>
			
				<linearGradient id="SVGID_00000141452216798587902310000010695062456363309470_" gradientUnits="userSpaceOnUse" x1="-32.9683" y1="30.8608" x2="127.4523" y2="30.8608" gradientTransform="matrix(0.9969 7.890000e-02 -7.890000e-02 0.9969 4.1459 -7.16)">
				<stop  offset="0" style="stop-color:#00A8DE"/>
				<stop  offset="0.2" style="stop-color:#333391"/>
				<stop  offset="0.4" style="stop-color:#E91388"/>
				<stop  offset="0.6" style="stop-color:#EB2D2E"/>
				<stop  offset="0.8" style="stop-color:#FDE92B"/>
				<stop  offset="1" style="stop-color:#009E54"/>
			</linearGradient>
			<path style="fill:url(#SVGID_00000141452216798587902310000010695062456363309470_);" d="M120,45c-0.2,0.1-0.5,0.1-0.7,0.1
				c-3.6,0.3-7.1-3.5-10.9-12c-0.9-2-1.8-4.1-2.6-6.2c-2.2-5.3-4.4-10.7-7.2-14.5c-2.6-3.6-5.7-5.3-9-5c-2.6,0.2-5.2,1.6-7.7,4.1
				c-2.6,2.6-5,6.1-7.1,10.7c-1.4,2.9-2.7,6.3-4,9.5c-2.4,6.1-4.9,12.4-7.8,16c-1.9,2.3-4,3.4-6.1,3.3c-3.5-0.2-6.4-3.5-8.3-6.3
				c-2.1-3.1-3.9-6.9-5.8-10.9c-1.8-3.7-3.6-7.4-5.6-10.6c-2.2-3.4-5.6-7.6-9.5-8.1c-1.9-0.2-3.8,0.5-5.5,2.1
				c-2.8,2.7-5.3,7.8-7.6,12.8c-2.5,5.3-5.1,10.8-8.2,13.4c-1.5,1.3-3.1,1.8-4.7,1.6C0.9,45,0.5,44.9,0,44.7v0.1
				c0.5,0.2,0.9,0.3,1.4,0.4c1.6,0.2,3.3-0.3,4.8-1.6c3.1-2.6,5.7-8.1,8.2-13.4c2.4-5,4.8-10.1,7.6-12.8c1.7-1.6,3.5-2.3,5.4-2.1
				c3.9,0.5,7.2,4.6,9.4,8c2,3.2,3.9,7,5.6,10.6c1.9,4,3.8,7.8,5.9,10.9c2.6,4,5.5,6.2,8.2,6.4c0.1,0,0.1,0,0.2,0
				c2.2,0.1,4.3-1,6.2-3.4c3-3.6,5.5-10,7.9-16.1c1.3-3.3,2.6-6.6,4-9.5c2.1-4.5,4.5-8.1,7.1-10.6c2.5-2.5,5.1-3.9,7.6-4.1
				c3.3-0.3,6.4,1.4,8.9,4.9c2.7,3.8,5,9.2,7.2,14.5c0.8,2.1,1.7,4.2,2.6,6.2c2.3,5.1,5.8,11.7,10.3,12.1c0.3,0,0.5,0,0.8,0
				c0.2,0,0.5-0.1,0.7-0.1V45z"/>
		</g>
		<g>
			
				<linearGradient id="SVGID_00000119092731785020838430000015449747105782365840_" gradientUnits="userSpaceOnUse" x1="-32.17" y1="30.5428" x2="128.3826" y2="30.5428" gradientTransform="matrix(0.9969 7.890000e-02 -7.890000e-02 0.9969 4.1459 -7.16)">
				<stop  offset="0" style="stop-color:#00A8DE"/>
				<stop  offset="0.2" style="stop-color:#333391"/>
				<stop  offset="0.4" style="stop-color:#E91388"/>
				<stop  offset="0.6" style="stop-color:#EB2D2E"/>
				<stop  offset="0.8" style="stop-color:#FDE92B"/>
				<stop  offset="1" style="stop-color:#009E54"/>
			</linearGradient>
			<path style="fill:url(#SVGID_00000119092731785020838430000015449747105782365840_);" d="M120,45.5c-3.5,0.1-6.9-3.7-10.6-12
				c-0.9-2.1-1.8-4.3-2.7-6.4c-2.2-5.2-4.4-10.7-7.1-14.5c-2.5-3.6-5.6-5.3-8.9-5.1c-2.5,0.2-5.1,1.5-7.6,3.9
				c-2.5,2.5-4.9,5.9-7,10.3c-1.4,2.9-2.7,6.2-4,9.5c-2.4,6-4.9,12.1-7.8,15.7c-1.9,2.4-4,3.5-6.2,3.5c-2.7-0.1-5.5-2.1-8.1-5.8
				c-2.1-3-3.9-6.6-5.9-10.4c-1.8-3.5-3.6-7.1-5.7-10.2c-2.3-3.4-5.8-7.5-9.7-8c-1.9-0.2-3.7,0.4-5.4,2c-2.8,2.6-5.3,7.6-7.7,12.4
				c-2.5,5.1-5.1,10.3-8.2,12.9c-1.5,1.3-3.1,1.8-4.8,1.6c-0.9-0.1-1.7-0.4-2.6-0.9V44c0.9,0.5,1.8,0.8,2.6,0.9
				c1.7,0.2,3.3-0.3,4.9-1.6c3.1-2.6,5.7-7.8,8.2-12.9c2.4-4.8,4.8-9.8,7.7-12.3c1.7-1.5,3.4-2.2,5.3-1.9c3.9,0.5,7.4,4.6,9.6,8
				c2,3.1,3.9,6.7,5.7,10.2c2,3.8,3.8,7.5,5.9,10.4c2.6,3.6,5.3,5.7,8,5.9c0.1,0,0.2,0,0.2,0c2.2,0.1,4.3-1.1,6.3-3.5
				c2.9-3.6,5.4-9.7,7.8-15.7c1.3-3.2,2.6-6.6,4-9.4c2.1-4.3,4.5-7.8,7-10.2c2.5-2.4,5-3.7,7.5-3.9c3.3-0.3,6.3,1.5,8.8,5
				c2.7,3.8,4.9,9.2,7.1,14.5c0.9,2.1,1.8,4.3,2.7,6.4c1.7,3.8,3.3,6.6,4.9,8.6c1.9,2.3,3.9,3.5,5.8,3.4V45.5z"/>
		</g>
		<g>
			
				<linearGradient id="SVGID_00000138563105889167101230000016040675285799425724_" gradientUnits="userSpaceOnUse" x1="-31.3714" y1="30.2285" x2="129.3134" y2="30.2285" gradientTransform="matrix(0.9969 7.890000e-02 -7.890000e-02 0.9969 4.1459 -7.16)">
				<stop  offset="0" style="stop-color:#00A8DE"/>
				<stop  offset="0.2" style="stop-color:#333391"/>
				<stop  offset="0.4" style="stop-color:#E91388"/>
				<stop  offset="0.6" style="stop-color:#EB2D2E"/>
				<stop  offset="0.8" style="stop-color:#FDE92B"/>
				<stop  offset="1" style="stop-color:#009E54"/>
			</linearGradient>
			<path style="fill:url(#SVGID_00000138563105889167101230000016040675285799425724_);" d="M120,45.9c-3.1-0.6-6.2-4.4-9.5-11.8
				c-0.9-2.1-1.9-4.4-2.8-6.6c-2.2-5.3-4.4-10.7-7.1-14.6c-2.5-3.6-5.6-5.3-8.8-5.1c-2.5,0.2-4.9,1.4-7.4,3.8
				c-2.5,2.4-4.8,5.7-6.9,9.9c-1.4,2.8-2.8,6.2-4.1,9.4c-2.4,5.8-4.8,11.8-7.7,15.3c-2,2.4-4.1,3.6-6.3,3.6
				c-2.6-0.1-5.3-1.9-7.9-5.3c-2.1-2.8-4-6.3-6-10c-1.8-3.3-3.6-6.7-5.7-9.7c-2.3-3.4-5.9-7.5-9.9-8c-1.9-0.2-3.7,0.4-5.3,1.8
				c-2.8,2.5-5.3,7.3-7.8,11.9c-2.5,4.9-5.1,9.9-8.2,12.4c-1.6,1.3-3.2,1.8-4.8,1.6c-1.2-0.1-2.5-0.7-3.8-1.7V43
				c1.3,1,2.6,1.5,3.8,1.6c1.7,0.2,3.3-0.4,4.9-1.7c3.1-2.5,5.7-7.5,8.2-12.4c2.4-4.6,4.9-9.4,7.7-11.9c1.6-1.4,3.4-2,5.2-1.8
				c3.9,0.5,7.5,4.6,9.8,7.9c2.1,3,3.9,6.4,5.7,9.7c2,3.7,3.9,7.2,6,10c2.5,3.3,5.1,5.2,7.7,5.4c0.1,0,0.2,0,0.3,0
				c2.2,0,4.4-1.2,6.4-3.6c2.9-3.5,5.4-9.5,7.7-15.3c1.3-3.2,2.7-6.5,4.1-9.4c2.1-4.2,4.4-7.5,6.9-9.9c2.4-2.3,4.9-3.5,7.3-3.7
				c3.2-0.2,6.2,1.5,8.7,5c2.7,3.9,4.9,9.3,7.1,14.6c0.9,2.2,1.8,4.4,2.8,6.6c1.7,3.8,3.3,6.6,4.9,8.5c1.6,1.9,3.2,3.1,4.8,3.4V45.9
				z"/>
		</g>
		<g>
			
				<linearGradient id="SVGID_00000158029494641749222260000001877483137065437359_" gradientUnits="userSpaceOnUse" x1="-30.5725" y1="29.9185" x2="130.244" y2="29.9185" gradientTransform="matrix(0.9969 7.890000e-02 -7.890000e-02 0.9969 4.1459 -7.16)">
				<stop  offset="0" style="stop-color:#00A8DE"/>
				<stop  offset="0.2" style="stop-color:#333391"/>
				<stop  offset="0.4" style="stop-color:#E91388"/>
				<stop  offset="0.6" style="stop-color:#EB2D2E"/>
				<stop  offset="0.8" style="stop-color:#FDE92B"/>
				<stop  offset="1" style="stop-color:#009E54"/>
			</linearGradient>
			<path style="fill:url(#SVGID_00000158029494641749222260000001877483137065437359_);" d="M120,46c-2.8-1.1-5.5-4.8-8.4-11.4
				c-1-2.2-1.9-4.5-2.8-6.7c-2.2-5.3-4.4-10.8-7.1-14.7c-2.5-3.6-5.5-5.4-8.7-5.2c-2.4,0.2-4.8,1.4-7.2,3.6
				c-2.4,2.3-4.7,5.5-6.8,9.5c-1.4,2.8-2.8,6.1-4.2,9.3c-2.4,5.6-4.8,11.4-7.6,14.9c-2,2.5-4.1,3.7-6.4,3.7c-2.5,0-5.2-1.7-7.7-4.9
				c-2.1-2.7-4-6-6.1-9.6c-1.8-3.1-3.6-6.4-5.7-9.2c-3.4-4.8-6.9-7.5-10-7.9c-1.8-0.2-3.6,0.3-5.2,1.6c-2.9,2.3-5.4,7-7.8,11.5
				c-2.5,4.7-5.1,9.5-8.2,11.9C6.8,45,3.6,44.8,0,41.7v0.2c1.1,1,2.2,1.6,3.3,2c2.3,0.9,4.6,0.5,6.8-1.2c3.1-2.4,5.7-7.3,8.2-11.9
				c2.4-4.5,4.9-9.1,7.8-11.4c1.6-1.3,3.3-1.8,5.1-1.6c3.1,0.4,6.5,3.1,9.9,7.8c2,2.8,3.9,6.1,5.7,9.2c2,3.6,4,6.9,6.1,9.6
				c2.4,3,4.9,4.7,7.4,4.9c0.1,0,0.3,0,0.4,0c2.3,0,4.4-1.3,6.5-3.8c2.8-3.5,5.3-9.3,7.6-14.9c1.3-3.2,2.7-6.5,4.2-9.3
				c2.1-4,4.4-7.2,6.8-9.5c2.4-2.2,4.8-3.4,7.2-3.5c3.2-0.2,6.2,1.6,8.6,5.1c2.7,3.9,4.9,9.4,7.1,14.7c0.9,2.2,1.8,4.5,2.8,6.7
				c1.7,3.7,3.2,6.5,4.8,8.4c1.2,1.5,2.5,2.6,3.8,3.1V46z"/>
		</g>
		<g>
			
				<linearGradient id="SVGID_00000065756019986209104960000009202113675728613767_" gradientUnits="userSpaceOnUse" x1="-29.7734" y1="29.6131" x2="131.1759" y2="29.6131" gradientTransform="matrix(0.9969 7.890000e-02 -7.890000e-02 0.9969 4.1459 -7.16)">
				<stop  offset="0" style="stop-color:#00A8DE"/>
				<stop  offset="0.2" style="stop-color:#333391"/>
				<stop  offset="0.4" style="stop-color:#E91388"/>
				<stop  offset="0.6" style="stop-color:#EB2D2E"/>
				<stop  offset="0.8" style="stop-color:#FDE92B"/>
				<stop  offset="1" style="stop-color:#009E54"/>
			</linearGradient>
			<path style="fill:url(#SVGID_00000065756019986209104960000009202113675728613767_);" d="M120,45.9c-2.4-1.5-4.8-5.1-7.4-10.8
				c-1-2.2-1.9-4.5-2.8-6.8c-2.2-5.3-4.4-10.8-7.1-14.8c-2.4-3.6-5.4-5.4-8.6-5.2c-2.3,0.1-4.7,1.3-7.1,3.4
				c-2.4,2.2-4.7,5.2-6.7,9.2c-1.5,2.8-2.9,6.1-4.3,9.3c-2.3,5.4-4.8,11.1-7.5,14.5c-2,2.5-4.2,3.8-6.5,3.9c-2.5,0-5.1-1.5-7.5-4.4
				c-2.2-2.5-4.1-5.8-6.2-9.2c-1.8-2.9-3.6-6-5.7-8.7c-3.6-4.8-7.1-7.4-10.2-7.8c-1.8-0.2-3.5,0.2-5.1,1.4c-2.9,2.2-5.3,6.5-7.9,11
				c-2.5,4.5-5.1,9.1-8.2,11.4c-2.2,1.7-4.3,2.1-6.7,1.3c-1.5-0.5-3-1.5-4.6-3v0.2c1.6,1.5,3.1,2.5,4.5,3c2.4,0.8,4.6,0.4,6.8-1.3
				c3.1-2.4,5.7-7,8.2-11.5c2.5-4.3,5-8.8,7.9-11c1.5-1.2,3.2-1.7,5-1.4c3.1,0.4,6.5,3,10.1,7.8c2,2.7,3.9,5.7,5.7,8.7
				c2.1,3.4,4,6.7,6.2,9.2c2.3,2.7,4.7,4.2,7.1,4.4c0.2,0,0.4,0,0.6,0c2.3,0,4.5-1.3,6.6-3.9c2.8-3.4,5.2-9.1,7.6-14.5
				c1.4-3.2,2.8-6.5,4.2-9.2c2.1-3.9,4.3-7,6.7-9.1c2.3-2.1,4.7-3.2,7-3.4c3.2-0.2,6.1,1.6,8.5,5.1c2.7,4,4.9,9.5,7.1,14.8
				c0.9,2.3,1.9,4.6,2.8,6.8c1.6,3.7,3.2,6.4,4.7,8.3c0.9,1.2,1.8,2,2.8,2.6V45.9z"/>
		</g>
		<g>
			
				<linearGradient id="SVGID_00000078037012009928380790000015761317101841359534_" gradientUnits="userSpaceOnUse" x1="-28.9739" y1="29.4047" x2="132.1065" y2="29.4047" gradientTransform="matrix(0.9969 7.890000e-02 -7.890000e-02 0.9969 4.1459 -7.16)">
				<stop  offset="0" style="stop-color:#00A8DE"/>
				<stop  offset="0.2" style="stop-color:#333391"/>
				<stop  offset="0.4" style="stop-color:#E91388"/>
				<stop  offset="0.6" style="stop-color:#EB2D2E"/>
				<stop  offset="0.8" style="stop-color:#FDE92B"/>
				<stop  offset="1" style="stop-color:#009E54"/>
			</linearGradient>
			<path style="fill:url(#SVGID_00000078037012009928380790000015761317101841359534_);" d="M120,45.6c-2.1-1.8-4.1-5.1-6.3-10
				c-1-2.2-2-4.6-2.9-6.9c-2.2-5.3-4.4-10.9-7.1-14.9c-2.4-3.6-5.3-5.4-8.5-5.3c-4.6,0.2-9.4,4.5-13.5,12c-1.5,2.7-2.9,6-4.3,9.2
				C75,35,72.6,40.4,69.9,43.8c-2.1,2.6-4.3,3.9-6.6,4c-2.4,0.1-4.9-1.2-7.3-3.9c-2.2-2.4-4.2-5.5-6.3-8.8c-1.8-2.7-3.6-5.6-5.6-8.1
				c-2.6-3.3-5.1-5.5-7.4-6.8c-2.9-1.5-5.6-1.4-8,0.3c-2.9,2.1-5.4,6.2-8,10.6c-2.5,4.2-5.1,8.6-8.2,10.9C8.7,44.8,4.8,44,0,39.3
				v0.2c2.1,2.1,4,3.3,5.8,3.9c0.6,0.2,1.1,0.3,1.6,0.3c1.8,0.1,3.5-0.4,5.2-1.7c3-2.3,5.7-6.7,8.2-11c2.6-4.4,5.1-8.5,7.9-10.5
				c2.3-1.7,5-1.8,7.8-0.2c2.3,1.2,4.8,3.5,7.4,6.7c2,2.6,3.8,5.4,5.6,8.1c2.1,3.3,4.1,6.4,6.3,8.8c2.5,2.7,5,4.1,7.4,4
				c2.3-0.1,4.6-1.4,6.7-4.1c2.7-3.4,5.1-8.8,7.5-14.1c1.4-3.2,2.9-6.5,4.3-9.2c2-3.7,4.3-6.7,6.6-8.7c2.3-2,4.6-3.1,6.8-3.2
				c3.1-0.1,6,1.7,8.4,5.2c2.7,4.1,4.9,9.6,7.1,14.9c0.9,2.3,1.9,4.7,2.9,6.9c1.6,3.6,3.1,6.3,4.6,8.3c0.6,0.7,1.2,1.3,1.7,1.8V45.6
				z"/>
		</g>
		<g>
			
				<linearGradient id="SVGID_00000005969625336222963100000012191869056084503473_" gradientUnits="userSpaceOnUse" x1="-28.1741" y1="29.2708" x2="133.0381" y2="29.2708" gradientTransform="matrix(0.9969 7.890000e-02 -7.890000e-02 0.9969 4.1459 -7.16)">
				<stop  offset="0" style="stop-color:#00A8DE"/>
				<stop  offset="0.2" style="stop-color:#333391"/>
				<stop  offset="0.4" style="stop-color:#E91388"/>
				<stop  offset="0.6" style="stop-color:#EB2D2E"/>
				<stop  offset="0.8" style="stop-color:#FDE92B"/>
				<stop  offset="1" style="stop-color:#009E54"/>
			</linearGradient>
			<path style="fill:url(#SVGID_00000005969625336222963100000012191869056084503473_);" d="M120,45c-1.7-1.9-3.4-4.8-5.2-8.9
				c-1-2.3-2-4.7-2.9-7.1c-2.2-5.4-4.4-10.9-7.1-15.1c-2.4-3.6-5.3-5.4-8.4-5.3c-4.5,0.2-9.2,4.2-13.3,11.4c-1.5,2.7-3,6-4.4,9.2
				C76.3,34.4,74,39.7,71.3,43c-2.1,2.6-4.4,4-6.7,4.2c-2.3,0.1-4.8-1-7.1-3.5c-2.2-2.3-4.3-5.3-6.5-8.5c-1.7-2.5-3.5-5.2-5.5-7.6
				c-2.7-3.2-5.2-5.4-7.5-6.7c-2.9-1.6-5.6-1.5-8,0c-2.9,1.9-5.4,5.9-8.1,10.2c-2.5,4-5.1,8.2-8.1,10.4c-5.1,3.7-9.5,0.6-12.9-2.5
				c-0.3-0.3-0.6-0.6-0.9-0.9v0.2c0.3,0.3,0.6,0.5,0.8,0.8c2.2,2,4.8,4,7.7,4.2c1.7,0.1,3.5-0.3,5.4-1.7c3-2.2,5.6-6.4,8.2-10.5
				c2.6-4.2,5.1-8.2,8-10.1c2.3-1.5,5-1.6,7.8,0c2.3,1.2,4.8,3.4,7.4,6.6c2,2.4,3.8,5,5.5,7.6c2.2,3.2,4.3,6.2,6.5,8.5
				c2.4,2.5,4.9,3.6,7.2,3.5c2.4-0.1,4.6-1.5,6.8-4.2c2.7-3.3,5-8.6,7.3-13.7c1.4-3.2,2.9-6.5,4.4-9.2C87.2,13,91.9,9,96.4,8.8
				c3.1-0.1,6,1.7,8.3,5.2c2.7,4.1,4.9,9.7,7.1,15c0.9,2.3,1.9,4.8,2.9,7.1c1.8,4.1,3.6,7.1,5.3,9V45z"/>
		</g>
		<g>
			
				<linearGradient id="SVGID_00000015340340656999993300000001869324459356101771_" gradientUnits="userSpaceOnUse" x1="-27.3738" y1="29.1463" x2="133.9692" y2="29.1463" gradientTransform="matrix(0.9969 7.890000e-02 -7.890000e-02 0.9969 4.1459 -7.16)">
				<stop  offset="0" style="stop-color:#00A8DE"/>
				<stop  offset="0.2" style="stop-color:#333391"/>
				<stop  offset="0.4" style="stop-color:#E91388"/>
				<stop  offset="0.6" style="stop-color:#EB2D2E"/>
				<stop  offset="0.8" style="stop-color:#FDE92B"/>
				<stop  offset="1" style="stop-color:#009E54"/>
			</linearGradient>
			<path style="fill:url(#SVGID_00000015340340656999993300000001869324459356101771_);" d="M120,44.2c-1.3-1.8-2.7-4.3-4.1-7.5
				c-1-2.3-2-4.8-3-7.2c-2.2-5.4-4.4-11-7.1-15.2c-2.3-3.6-5.2-5.4-8.3-5.4c-4.4,0.1-9,4-13,10.9c-1.5,2.7-3.1,6-4.6,9.2
				c-2.3,4.9-4.6,10-7.2,13.2c-2.1,2.7-4.4,4.2-6.8,4.3c-2.3,0.2-4.6-0.8-7-3c-2.3-2.1-4.4-5-6.7-8.1c-1.7-2.3-3.5-4.8-5.4-7
				c-6.2-7.1-11.3-9.3-15.5-6.7c-2.9,1.8-5.5,5.6-8.1,9.7c-2.5,3.8-5.1,7.8-8.1,9.9c-5,3.6-9.4,0.9-13-2.1c-0.7-0.6-1.4-1.3-2.2-2
				v0.2c0.7,0.7,1.4,1.3,2.1,1.9c2.4,2,4.4,3.2,6.3,3.7c0.4,0.1,0.9,0.2,1.3,0.2c1.9,0.2,3.7-0.4,5.5-1.7c3-2.2,5.6-6.1,8.1-10
				c2.7-4.1,5.2-7.9,8.1-9.7c4.2-2.5,9.2-0.3,15.4,6.7c2,2.2,3.7,4.6,5.4,7c2.3,3.1,4.4,6,6.7,8.1c2.4,2.2,4.7,3.2,7.1,3.1
				c2.4-0.2,4.7-1.7,6.9-4.4c2.6-3.3,4.9-8.3,7.2-13.3c1.5-3.2,3-6.5,4.5-9.1C88.6,13,93.1,9.2,97.5,9c3.1-0.1,5.9,1.8,8.2,5.3
				c2.7,4.2,4.9,9.8,7.1,15.1c1,2.4,1.9,4.9,3,7.2c1.4,3.3,2.8,5.8,4.2,7.7V44.2z"/>
		</g>
		<g>
			
				<linearGradient id="SVGID_00000045602859243813415580000015345775917396504744_" gradientUnits="userSpaceOnUse" x1="-26.5732" y1="29.019" x2="134.9001" y2="29.019" gradientTransform="matrix(0.9969 7.890000e-02 -7.890000e-02 0.9969 4.1459 -7.16)">
				<stop  offset="0" style="stop-color:#00A8DE"/>
				<stop  offset="0.2" style="stop-color:#333391"/>
				<stop  offset="0.4" style="stop-color:#E91388"/>
				<stop  offset="0.6" style="stop-color:#EB2D2E"/>
				<stop  offset="0.8" style="stop-color:#FDE92B"/>
				<stop  offset="1" style="stop-color:#009E54"/>
			</linearGradient>
			<path style="fill:url(#SVGID_00000045602859243813415580000015345775917396504744_);" d="M120,43.1c-1-1.6-2-3.6-3-5.9
				c-1-2.4-2-4.9-3-7.3c-2.2-5.4-4.4-11-7.1-15.3c-2.3-3.6-5.2-5.5-8.2-5.4c-4.3,0.1-8.8,3.7-12.7,10.3c-1.6,2.7-3.2,6-4.7,9.1
				c-2.2,4.7-4.6,9.6-7.1,12.8c-2.2,2.8-4.5,4.3-6.9,4.5c-2.2,0.2-4.5-0.7-6.8-2.6c-2.4-2-4.6-4.8-6.9-7.8c-1.7-2.1-3.4-4.3-5.3-6.4
				c-4.1-4.4-10.1-9.9-15.6-6.9c-3,1.7-5.5,5.4-8.3,9.3c-2.5,3.6-5.1,7.3-8,9.4c-5,3.5-9.4,1.1-13-1.7c-1.1-0.9-2.2-1.9-3.4-2.9v0.2
				c1.1,1,2.2,2,3.3,2.9c2.4,1.9,4.4,2.9,6.3,3.3c0.4,0.1,0.7,0.1,1.1,0.2c2,0.2,3.9-0.4,5.8-1.7c3-2.1,5.6-5.8,8.1-9.5
				c2.7-3.9,5.3-7.6,8.2-9.2c5.4-3,11.4,2.4,15.4,6.8c1.9,2.1,3.6,4.3,5.3,6.4c2.4,3,4.6,5.8,6.9,7.8c2.3,2,4.6,2.8,6.9,2.6
				c2.4-0.2,4.8-1.8,7-4.6c2.5-3.2,4.9-8.1,7.1-12.8c1.5-3.2,3.1-6.5,4.7-9.1C89.9,13,94.4,9.3,98.6,9.2c3,0,5.9,1.8,8.1,5.4
				c2.7,4.2,4.9,9.8,7.1,15.3c1,2.4,2,4.9,3,7.3c0.9,2,1.9,4.2,3.1,6.1V43.1z"/>
		</g>
		<g>
			
				<linearGradient id="SVGID_00000106112143328144689520000002399784440430216866_" gradientUnits="userSpaceOnUse" x1="-25.7719" y1="28.8922" x2="135.8328" y2="28.8922" gradientTransform="matrix(0.9969 7.890000e-02 -7.890000e-02 0.9969 4.1459 -7.16)">
				<stop  offset="0" style="stop-color:#00A8DE"/>
				<stop  offset="0.2" style="stop-color:#333391"/>
				<stop  offset="0.4" style="stop-color:#E91388"/>
				<stop  offset="0.6" style="stop-color:#EB2D2E"/>
				<stop  offset="0.8" style="stop-color:#FDE92B"/>
				<stop  offset="1" style="stop-color:#009E54"/>
			</linearGradient>
			<path style="fill:url(#SVGID_00000106112143328144689520000002399784440430216866_);" d="M120,41.7c-0.7-1.4-1.4-2.8-1.9-4.1
				c-1.1-2.4-2.1-5-3-7.4c-2.2-5.4-4.4-11.1-7.1-15.4c-2.3-3.6-5.1-5.5-8.2-5.5c-4.1,0-8.5,3.5-12.4,9.8c-1.6,2.6-3.2,5.9-4.8,9.1
				c-2.2,4.5-4.5,9.2-6.9,12.3c-2.2,2.9-4.6,4.5-7.1,4.7c-2.1,0.2-4.3-0.5-6.5-2.2c-2.4-1.9-4.8-4.6-7.2-7.5
				c-1.6-1.9-3.3-3.9-5.1-5.8c-4.5-4.7-10.4-9.7-15.7-7c-3,1.5-5.6,5.1-8.4,8.9c-2.5,3.4-5.1,6.9-8,8.9c-5,3.4-9.4,1.2-13.1-1.3
				c-1.5-1.1-3-2.3-4.6-3.8v0.2c1.6,1.4,3.1,2.6,4.6,3.7c2.1,1.5,4.5,2.9,7.2,3.1c1.9,0.1,3.9-0.3,6-1.8c2.9-2,5.5-5.5,8-8.9
				c2.8-3.8,5.4-7.3,8.3-8.8c5.2-2.7,11,2.3,15.5,6.9c1.8,1.9,3.5,3.8,5.1,5.7c2.5,2.9,4.8,5.7,7.2,7.6c2.2,1.7,4.4,2.4,6.6,2.2
				c2.5-0.3,4.9-1.9,7.2-4.8c2.5-3.1,4.7-7.8,7-12.4c1.6-3.2,3.2-6.5,4.8-9.1c3.9-6.2,8.2-9.7,12.3-9.7c3,0,5.8,1.9,8.1,5.4
				c2.7,4.3,5,9.9,7.1,15.4c1,2.5,2,5,3,7.4c0.6,1.4,1.3,2.8,2.1,4.3V41.7z"/>
		</g>
		<g>
			
				<linearGradient id="SVGID_00000147917641013299881420000001493069138534285735_" gradientUnits="userSpaceOnUse" x1="-24.9702" y1="28.7666" x2="136.7643" y2="28.7666" gradientTransform="matrix(0.9969 7.890000e-02 -7.890000e-02 0.9969 4.1459 -7.16)">
				<stop  offset="0" style="stop-color:#00A8DE"/>
				<stop  offset="0.2" style="stop-color:#333391"/>
				<stop  offset="0.4" style="stop-color:#E91388"/>
				<stop  offset="0.6" style="stop-color:#EB2D2E"/>
				<stop  offset="0.8" style="stop-color:#FDE92B"/>
				<stop  offset="1" style="stop-color:#009E54"/>
			</linearGradient>
			<path style="fill:url(#SVGID_00000147917641013299881420000001493069138534285735_);" d="M120,40c-0.3-0.6-0.6-1.3-0.9-1.9
				c-1.1-2.5-2.1-5.1-3.1-7.6c-2.2-5.5-4.4-11.1-7.1-15.5c-2.2-3.6-5-5.5-8.1-5.5c-4,0-8.3,3.3-12.1,9.2c-1.7,2.6-3.3,5.9-5,9.2
				c-2.2,4.3-4.4,8.8-6.8,11.9c-4.2,5.4-8.7,6.4-13.5,3.2c-2.5-1.7-5-4.4-7.6-7.3c-1.5-1.7-3.1-3.4-4.8-5.1
				c-2.1-2.1-4.9-4.6-7.7-6.2c-3-1.7-5.7-2-8-0.9c-3,1.4-5.7,4.8-8.5,8.4c-2.5,3.2-5,6.5-7.9,8.4c-5,3.3-9.4,1.4-13.1-0.9
				C4,38.2,2,36.7,0,34.9v0.2c2,1.7,3.9,3.2,5.8,4.4c2.1,1.3,4.4,2.5,6.9,2.7c2,0.2,4.1-0.3,6.3-1.8c2.9-2,5.5-5.2,7.9-8.4
				c2.8-3.6,5.5-7,8.4-8.4c2.3-1.1,4.9-0.8,7.9,0.9c2.8,1.6,5.6,4.1,7.7,6.2c1.7,1.7,3.3,3.4,4.8,5.1c2.6,2.9,5,5.6,7.6,7.3
				c2.2,1.5,4.4,2.1,6.5,1.8c2.5-0.4,4.9-2.1,7.1-5c2.4-3.1,4.6-7.5,6.8-11.9c1.6-3.2,3.3-6.6,4.9-9.2c3.8-5.9,8.1-9.2,12-9.2
				c3,0,5.8,1.9,8,5.5c2.7,4.4,5,10,7.1,15.5c1,2.5,2,5.1,3.1,7.6c0.3,0.7,0.6,1.4,1,2.1V40z"/>
		</g>
		<g>
			
				<linearGradient id="SVGID_00000180365075754534638200000017363085751619450814_" gradientUnits="userSpaceOnUse" x1="-24.168" y1="28.6513" x2="137.6963" y2="28.6513" gradientTransform="matrix(0.9969 7.890000e-02 -7.890000e-02 0.9969 4.1459 -7.16)">
				<stop  offset="0" style="stop-color:#00A8DE"/>
				<stop  offset="0.2" style="stop-color:#333391"/>
				<stop  offset="0.4" style="stop-color:#E91388"/>
				<stop  offset="0.6" style="stop-color:#EB2D2E"/>
				<stop  offset="0.8" style="stop-color:#FDE92B"/>
				<stop  offset="1" style="stop-color:#009E54"/>
			</linearGradient>
			<path style="fill:url(#SVGID_00000180365075754534638200000017363085751619450814_);" d="M120,38.1c-1-2.3-2-4.8-2.9-7.1
				c-2.2-5.5-4.4-11.2-7.1-15.6c-2.2-3.6-5-5.6-8-5.6c-1.9,0-3.9,0.7-5.9,2.2c-2,1.5-4,3.7-5.9,6.5c-1.7,2.6-3.4,5.9-5.1,9.2
				c-2.1,4.1-4.3,8.4-6.6,11.4c-4.1,5.4-8.6,6.6-13.4,3.8c-2.7-1.6-5.3-4.3-8-7.1c-1.4-1.4-2.9-2.9-4.5-4.4
				c-4.9-4.6-10.6-9.3-15.8-7.2c-3.1,1.2-5.8,4.5-8.6,8c-2.4,3-5,6-7.8,7.9c-5,3.3-9.5,1.6-13.2-0.5c-2.3-1.3-4.6-3-7.1-5v0.2
				c2.4,2,4.8,3.7,7,5c2.5,1.4,4.5,2.2,6.4,2.4c0.1,0,0.2,0,0.3,0c2.3,0.2,4.5-0.4,6.6-1.8c2.9-1.9,5.4-5,7.9-7.9
				c2.9-3.5,5.5-6.7,8.6-8c5.1-2.1,10.8,2.6,15.7,7.2c1.6,1.5,3,3,4.5,4.4c2.8,2.8,5.4,5.5,8,7.1c1.5,0.9,2.9,1.4,4.3,1.5
				c3.2,0.3,6.3-1.5,9.3-5.3c2.3-3,4.5-7.3,6.6-11.4c1.7-3.2,3.4-6.6,5.1-9.2c1.9-2.8,3.9-5,5.9-6.5c2-1.4,4-2.2,5.9-2.1
				c3,0.1,5.7,2,7.9,5.6c2.7,4.4,5,10.1,7.1,15.6c1,2.5,2,5,3,7.4V38.1z"/>
		</g>
		<g>
			
				<linearGradient id="SVGID_00000118382849650600020890000010790543885961054108_" gradientUnits="userSpaceOnUse" x1="-23.3651" y1="28.5349" x2="138.629" y2="28.5349" gradientTransform="matrix(0.9969 7.890000e-02 -7.890000e-02 0.9969 4.1459 -7.16)">
				<stop  offset="0" style="stop-color:#00A8DE"/>
				<stop  offset="0.2" style="stop-color:#333391"/>
				<stop  offset="0.4" style="stop-color:#E91388"/>
				<stop  offset="0.6" style="stop-color:#EB2D2E"/>
				<stop  offset="0.8" style="stop-color:#FDE92B"/>
				<stop  offset="1" style="stop-color:#009E54"/>
			</linearGradient>
			<path style="fill:url(#SVGID_00000118382849650600020890000010790543885961054108_);" d="M120,36c-0.6-1.5-1.2-3.1-1.8-4.6
				c-2.2-5.5-4.4-11.2-7.1-15.8c-2.2-3.6-4.9-5.6-7.9-5.7c-1.9-0.1-3.8,0.6-5.8,2c-2,1.4-3.9,3.5-5.8,6.2c-1.8,2.6-3.6,6-5.3,9.2
				c-2.1,3.9-4.2,8-6.4,10.9c-4.1,5.4-8.6,6.8-13.3,4.4c-2.8-1.5-5.5-4-8.6-6.9c-1.3-1.2-2.6-2.4-4-3.7c-2.6-2.3-5.2-4.5-7.8-6
				c-3.1-1.7-5.7-2.2-8.1-1.3c-3.1,1.1-5.9,4.2-8.8,7.6c-2.4,2.8-4.9,5.6-7.7,7.4c-5.1,3.2-9.5,1.7-13.2-0.2
				c-2.7-1.4-5.6-3.3-8.3-5.5v0.2c2.7,2.1,5.6,4.1,8.3,5.4c2.4,1.2,4.4,1.9,6.3,2c0,0,0.1,0,0.1,0c2.4,0.2,4.6-0.5,6.9-1.9
				c2.8-1.8,5.3-4.7,7.8-7.4c2.9-3.3,5.7-6.5,8.7-7.5c5.3-1.9,11.4,3.4,15.8,7.3c1.4,1.2,2.7,2.5,4,3.7c3.1,2.9,5.8,5.4,8.6,6.9
				c2.2,1.1,4.4,1.5,6.4,0.9c2.4-0.6,4.8-2.4,7-5.3c2.2-2.9,4.4-7,6.4-10.9c1.7-3.3,3.5-6.7,5.3-9.2c3.7-5.4,7.7-8.2,11.5-8.1
				c2.9,0.1,5.6,2,7.8,5.6c2.7,4.5,5,10.2,7.1,15.7c0.6,1.6,1.3,3.3,2,4.9V36z"/>
		</g>
		<g>
			
				<linearGradient id="SVGID_00000033368771536775921650000014206373412576512946_" gradientUnits="userSpaceOnUse" x1="-22.562" y1="28.4235" x2="139.5605" y2="28.4235" gradientTransform="matrix(0.9969 7.890000e-02 -7.890000e-02 0.9969 4.1459 -7.16)">
				<stop  offset="0" style="stop-color:#00A8DE"/>
				<stop  offset="0.2" style="stop-color:#333391"/>
				<stop  offset="0.4" style="stop-color:#E91388"/>
				<stop  offset="0.6" style="stop-color:#EB2D2E"/>
				<stop  offset="0.8" style="stop-color:#FDE92B"/>
				<stop  offset="1" style="stop-color:#009E54"/>
			</linearGradient>
			<path style="fill:url(#SVGID_00000033368771536775921650000014206373412576512946_);" d="M120,33.8c-0.3-0.7-0.5-1.4-0.8-2
				c-2.2-5.6-4.4-11.3-7.1-15.9c-2.2-3.6-4.9-5.6-7.8-5.8c-3.7-0.2-7.6,2.5-11.3,7.6c-1.8,2.6-3.7,6-5.5,9.3
				c-2,3.7-4.1,7.6-6.2,10.4c-4.2,5.4-8.5,7.1-13.2,5c-3-1.3-5.9-3.8-9.3-6.8c-1.1-0.9-2.2-1.9-3.4-2.9l-0.2-0.2
				c-5-4.1-10.6-8.8-15.7-7.2c-3.1,1-6,4-9,7.2c-2.4,2.5-4.8,5.2-7.6,6.9c-5.1,3.1-9.6,1.9-13.3,0.2c-2.8-1.2-6-3.2-9.6-5.8v0.2
				c3.6,2.6,6.7,4.6,9.5,5.8c2.5,1.1,4.5,1.6,6.5,1.7c2.4,0.1,4.7-0.6,6.9-2c2.8-1.7,5.2-4.3,7.6-6.9c3-3.2,5.8-6.2,8.9-7.1
				c5.1-1.5,10.7,3.1,15.6,7.2l0.2,0.2c1.2,1,2.3,2,3.4,2.9c3.4,2.9,6.3,5.4,9.3,6.8c2.2,1,4.3,1.1,6.4,0.5c2.4-0.7,4.7-2.6,6.9-5.5
				c2.1-2.8,4.2-6.6,6.2-10.4c1.8-3.3,3.7-6.7,5.5-9.3c3.7-5.1,7.5-7.7,11.2-7.6c2.9,0.1,5.6,2.1,7.7,5.7c2.7,4.6,5,10.3,7.1,15.9
				c0.3,0.8,0.6,1.5,0.9,2.3V33.8z"/>
		</g>
		<g>
			
				<linearGradient id="SVGID_00000012445424595395151770000014253464911042400926_" gradientUnits="userSpaceOnUse" x1="-21.7586" y1="28.3194" x2="140.4935" y2="28.3194" gradientTransform="matrix(0.9969 7.890000e-02 -7.890000e-02 0.9969 4.1459 -7.16)">
				<stop  offset="0" style="stop-color:#00A8DE"/>
				<stop  offset="0.2" style="stop-color:#333391"/>
				<stop  offset="0.4" style="stop-color:#E91388"/>
				<stop  offset="0.6" style="stop-color:#EB2D2E"/>
				<stop  offset="0.8" style="stop-color:#FDE92B"/>
				<stop  offset="1" style="stop-color:#009E54"/>
			</linearGradient>
			<path style="fill:url(#SVGID_00000012445424595395151770000014253464911042400926_);" d="M120,31.5c-2.1-5.4-4.3-10.9-6.9-15.3
				c-2.1-3.7-4.8-5.7-7.8-5.8c-3.6-0.2-7.4,2.3-11,7.1c-1.9,2.5-3.8,6-5.7,9.4c-2,3.5-4,7.1-6,9.8c-4.1,5.5-8.4,7.3-13.1,5.6
				c-3.3-1.2-6.5-3.7-10.2-6.7c-0.8-0.7-1.7-1.3-2.6-2c-0.3-0.3-0.7-0.5-1-0.8c-4.8-3.7-10.1-8-15-6.8c-3.2,0.8-6.1,3.7-9.2,6.8
				c-2.3,2.3-4.8,4.7-7.5,6.4c-5.1,3.1-9.6,2.1-13.3,0.6C7.6,38.5,4,36.4,0,33.6v0.2c3.9,2.8,7.5,4.9,10.8,6.1
				c3.7,1.4,8.3,2.5,13.4-0.6c2.7-1.6,5.1-4,7.5-6.4c3.1-3,6-5.9,9.1-6.7c4.8-1.2,10.2,3,14.9,6.7c0.3,0.3,0.7,0.5,1,0.8
				c0.9,0.7,1.7,1.4,2.6,2c3.7,3,6.9,5.5,10.2,6.7c2.2,0.8,4.3,0.8,6.4,0c2.4-0.9,4.7-2.8,6.9-5.7c2-2.7,4.1-6.3,6-9.8
				c1.9-3.4,3.8-6.8,5.7-9.4c3.6-4.8,7.4-7.2,10.9-7c2.9,0.2,5.6,2.2,7.7,5.8c2.7,4.5,4.9,10.2,7,15.6V31.5z"/>
		</g>
		<g>
			
				<linearGradient id="SVGID_00000052064742511051982530000009934755326665739147_" gradientUnits="userSpaceOnUse" x1="-20.9639" y1="28.2274" x2="141.4259" y2="28.2274" gradientTransform="matrix(0.9969 7.890000e-02 -7.890000e-02 0.9969 4.1459 -7.16)">
				<stop  offset="0" style="stop-color:#00A8DE"/>
				<stop  offset="0.2" style="stop-color:#333391"/>
				<stop  offset="0.4" style="stop-color:#E91388"/>
				<stop  offset="0.6" style="stop-color:#EB2D2E"/>
				<stop  offset="0.8" style="stop-color:#FDE92B"/>
				<stop  offset="1" style="stop-color:#009E54"/>
			</linearGradient>
			<path style="fill:url(#SVGID_00000052064742511051982530000009934755326665739147_);" d="M120,29.2c-1.8-4.5-3.7-9-5.8-12.8
				c-2.1-3.6-4.7-5.7-7.6-5.9c0,0,0,0-0.1,0c-3.4-0.2-7.1,2-10.7,6.6c-2,2.5-4,6.1-5.9,9.5c-1.9,3.3-3.8,6.7-5.8,9.3
				c-4.1,5.5-8.4,7.5-13,6.2c-3.6-1-7.2-3.6-11.3-6.7c-0.5-0.4-1-0.7-1.5-1.1c-0.6-0.4-1.2-0.9-1.7-1.3c-2.3-1.8-4.8-3.6-7.2-4.8
				c-2.8-1.4-5.1-1.9-7.2-1.5c-3.3,0.7-6.3,3.4-9.4,6.4c-2.3,2.1-4.6,4.3-7.3,5.8c-5.2,3-9.7,2.2-13.4,1c-3.6-1.2-7.7-3.3-12-6.4
				v0.2c4.3,3,8.4,5.2,12,6.3c3.7,1.2,8.2,2,13.5-1c2.6-1.5,5-3.7,7.3-5.8c3.2-2.9,6.1-5.7,9.4-6.3c4.6-0.9,9.5,2.8,14.3,6.3
				c0.6,0.4,1.2,0.9,1.7,1.3c0.5,0.4,1,0.7,1.5,1.1c4.2,3.1,7.8,5.8,11.4,6.7c0.6,0.2,1.3,0.3,1.9,0.3c4,0.3,7.7-1.9,11.2-6.6
				c1.9-2.6,3.9-6,5.8-9.3c2-3.4,4-7,5.9-9.5c3.5-4.5,7.2-6.8,10.6-6.5c0,0,0,0,0.1,0c2.9,0.2,5.5,2.2,7.5,5.9
				c2.2,3.9,4.1,8.4,6,13.1V29.2z"/>
		</g>
		<g>
			
				<linearGradient id="SVGID_00000084499721231355627210000001405876098147580033_" gradientUnits="userSpaceOnUse" x1="-20.1742" y1="28.143" x2="142.3579" y2="28.143" gradientTransform="matrix(0.9969 7.890000e-02 -7.890000e-02 0.9969 4.1459 -7.16)">
				<stop  offset="0" style="stop-color:#00A8DE"/>
				<stop  offset="0.2" style="stop-color:#333391"/>
				<stop  offset="0.4" style="stop-color:#E91388"/>
				<stop  offset="0.6" style="stop-color:#EB2D2E"/>
				<stop  offset="0.8" style="stop-color:#FDE92B"/>
				<stop  offset="1" style="stop-color:#009E54"/>
			</linearGradient>
			<path style="fill:url(#SVGID_00000084499721231355627210000001405876098147580033_);" d="M120,26.9c-1.5-3.6-3-7.2-4.8-10.3
				c-2.1-3.7-4.7-5.8-7.6-6c0,0,0,0,0,0c-3.3-0.3-6.9,1.8-10.4,6.1c-2.1,2.5-4.2,6.1-6.2,9.6c-1.8,3.1-3.7,6.3-5.5,8.7
				c-4.1,5.5-8.3,7.7-12.9,6.9c-4-0.8-7.9-3.5-12.9-6.9l0,0c-0.8-0.6-1.7-1.2-2.5-1.7c-4.6-3.3-9.3-6.7-13.7-6
				c-3.4,0.5-6.4,3.1-9.7,6c-2.2,1.9-4.5,3.9-7,5.3c-5.3,3-9.7,2.4-13.4,1.4C9.2,38.8,4.6,36.5,0,33.3v0.1c4.6,3.2,9.2,5.4,13.2,6.5
				c2.5,0.6,4.5,0.9,6.5,0.7c2.4-0.2,4.7-0.9,7-2.2c2.5-1.4,4.8-3.4,7-5.3c3.3-2.8,6.3-5.4,9.7-5.9c4.4-0.7,9.1,2.7,13.6,6
				c0.8,0.6,1.7,1.2,2.5,1.8l0,0c5,3.4,9,6.2,12.9,6.9c0.4,0.1,0.8,0.1,1.1,0.2c4.2,0.3,8.1-2,11.9-7.1c1.8-2.4,3.7-5.6,5.5-8.7
				c2-3.5,4.1-7.1,6.2-9.6c3.4-4.2,7-6.3,10.2-6c0,0,0,0,0,0c2.9,0.2,5.5,2.3,7.5,5.9c1.8,3.2,3.4,6.8,4.9,10.5V26.9z"/>
		</g>
		<g>
			
				<linearGradient id="SVGID_00000090288070558294661880000010056742221083205265_" gradientUnits="userSpaceOnUse" x1="-19.3838" y1="28.0798" x2="143.291" y2="28.0798" gradientTransform="matrix(0.9969 7.890000e-02 -7.890000e-02 0.9969 4.1459 -7.16)">
				<stop  offset="0" style="stop-color:#00A8DE"/>
				<stop  offset="0.2" style="stop-color:#333391"/>
				<stop  offset="0.4" style="stop-color:#E91388"/>
				<stop  offset="0.6" style="stop-color:#EB2D2E"/>
				<stop  offset="0.8" style="stop-color:#FDE92B"/>
				<stop  offset="1" style="stop-color:#009E54"/>
			</linearGradient>
			<path style="fill:url(#SVGID_00000090288070558294661880000010056742221083205265_);" d="M120,24.8c-1.2-2.8-2.4-5.4-3.8-7.8
				c-2.1-3.7-4.7-5.8-7.6-6.1c0,0-0.1,0-0.1,0c-3.2-0.2-6.6,1.7-9.9,5.5c-2.2,2.5-4.4,6.2-6.5,9.7c-1.7,2.8-3.5,5.8-5.2,8.1
				c-4.1,5.5-8.3,7.9-12.8,7.5c-4.1-0.4-8.3-3-13-6c-1-0.7-2.1-1.4-3.2-2.2c-4.3-3-8.8-6.1-13-5.7c-3.5,0.3-6.7,2.9-10.1,5.6
				c-2.1,1.7-4.3,3.4-6.7,4.7c-5.4,3-10,2.5-13.5,1.8C10,39,5,36.7,0,33.3v0.1c5,3.4,9.9,5.7,14.5,6.6c3.5,0.7,8.1,1.2,13.6-1.8
				c2.4-1.3,4.6-3.1,6.8-4.8c3.4-2.7,6.6-5.2,10-5.5c4.2-0.4,8.6,2.7,13,5.7c1.1,0.7,2.1,1.5,3.2,2.2c4.7,3,9,5.6,13.1,6
				c0.1,0,0.2,0,0.3,0c4.5,0.4,8.6-2.1,12.7-7.5c1.7-2.3,3.5-5.3,5.2-8.1c2.1-3.6,4.3-7.2,6.5-9.7c3.4-3.9,6.8-5.8,10-5.5
				c2.8,0.3,5.4,2.4,7.5,6c1.4,2.5,2.7,5.2,3.9,8.1V24.8z"/>
		</g>
		<g>
			
				<linearGradient id="SVGID_00000013186910567625194240000006496890792458463162_" gradientUnits="userSpaceOnUse" x1="-18.5931" y1="28.2357" x2="144.2232" y2="28.2357" gradientTransform="matrix(0.9969 7.890000e-02 -7.890000e-02 0.9969 4.1459 -7.16)">
				<stop  offset="0" style="stop-color:#00A8DE"/>
				<stop  offset="0.2" style="stop-color:#333391"/>
				<stop  offset="0.4" style="stop-color:#E91388"/>
				<stop  offset="0.6" style="stop-color:#EB2D2E"/>
				<stop  offset="0.8" style="stop-color:#FDE92B"/>
				<stop  offset="1" style="stop-color:#009E54"/>
			</linearGradient>
			<path style="fill:url(#SVGID_00000013186910567625194240000006496890792458463162_);" d="M120,22.7c-0.9-1.9-1.8-3.8-2.7-5.5
				c-2.1-3.7-4.7-5.9-7.5-6.2c-3.1-0.4-6.5,1.4-9.8,5c-2.3,2.5-4.6,6.3-6.8,9.9c-1.6,2.6-3.3,5.3-4.9,7.5c-4.1,5.5-8.3,8.2-12.8,8.1
				c-4-0.1-8.1-2.1-13.1-5.1c-1.3-0.8-2.6-1.7-3.9-2.5c-4.1-2.8-8.4-5.6-12.4-5.5c-3.6,0.2-6.9,2.6-10.5,5.2c-2,1.5-4.1,3-6.4,4.2
				c-5.5,3-10,3.7-13.5,2.2c-1.4-0.6-2.8-1.1-4.3-1.6C7.8,37.1,3.8,35.7,0,33.2v0.1c3.8,2.5,7.8,3.9,11.4,5.2c1.5,0.5,2.9,1,4.3,1.6
				c1.9,0.8,4,1,6.5,0.5c2.1-0.4,4.5-1.3,7.1-2.7c2.3-1.2,4.4-2.7,6.4-4.2c3.5-2.6,6.9-5,10.4-5.2c4-0.2,8.2,2.7,12.3,5.4
				c1.3,0.9,2.6,1.8,3.9,2.5c4.7,2.8,8.7,4.8,12.4,5.1c0.2,0,0.5,0,0.7,0c2.2,0,4.2-0.5,6.2-1.7c2.3-1.3,4.4-3.4,6.7-6.4
				c1.6-2.2,3.3-4.9,4.9-7.5c2.2-3.6,4.6-7.4,6.8-9.9c3.3-3.6,6.6-5.3,9.7-5c2.8,0.3,5.4,2.5,7.4,6.1c1,1.8,1.9,3.7,2.8,5.7V22.7z"
				/>
		</g>
		<g>
			
				<linearGradient id="SVGID_00000107571785513517174430000002916325056840658314_" gradientUnits="userSpaceOnUse" x1="-17.8015" y1="28.1815" x2="145.1563" y2="28.1815" gradientTransform="matrix(0.9969 7.890000e-02 -7.890000e-02 0.9969 4.1459 -7.16)">
				<stop  offset="0" style="stop-color:#00A8DE"/>
				<stop  offset="0.2" style="stop-color:#333391"/>
				<stop  offset="0.4" style="stop-color:#E91388"/>
				<stop  offset="0.6" style="stop-color:#EB2D2E"/>
				<stop  offset="0.8" style="stop-color:#FDE92B"/>
				<stop  offset="1" style="stop-color:#009E54"/>
			</linearGradient>
			<path style="fill:url(#SVGID_00000107571785513517174430000002916325056840658314_);" d="M120,20.8c-0.5-1.1-1.1-2.2-1.7-3.3
				c-2-3.8-4.6-5.9-7.5-6.3c-3-0.4-6.2,1.2-9.5,4.5c-2.4,2.5-4.8,6.4-7.2,10.1c-1.5,2.4-3,4.8-4.5,6.8c-4.1,5.6-8.2,8.4-12.7,8.7
				c-3.6,0.2-7.5-1-13.2-4.2c-1.5-0.8-3.1-1.9-4.6-2.9c-3.9-2.6-8-5.2-11.8-5.2c-3.7,0-7.2,2.3-11,4.8c-1.9,1.3-3.8,2.5-5.9,3.6
				c-5.9,3-10,3.8-13.6,2.6c-1.2-0.4-2.5-0.8-3.9-1.2C9,37.6,4.3,36.2,0,33.2v0.1c4.3,3,9,4.4,13.1,5.6c1.4,0.4,2.6,0.8,3.9,1.2
				c3.6,1.2,7.8,0.4,13.7-2.6c2.1-1.1,4.1-2.4,6-3.6c3.7-2.5,7.3-4.8,10.9-4.8c3.7,0,7.8,2.7,11.7,5.2c1.5,1,3.1,2,4.6,2.9
				c5.7,3.2,9.6,4.4,13.2,4.2c2.1-0.1,4.2-0.8,6.2-2.1c2.2-1.5,4.4-3.6,6.6-6.6c1.5-2,3-4.5,4.5-6.8c2.4-3.7,4.8-7.6,7.2-10.1
				c3.2-3.3,6.4-4.9,9.3-4.5c2.8,0.4,5.4,2.5,7.4,6.3c0.6,1.1,1.2,2.3,1.8,3.5V20.8z"/>
		</g>
		<g>
			
				<linearGradient id="SVGID_00000143594881354357084600000005712867525840476033_" gradientUnits="userSpaceOnUse" x1="-17.0092" y1="28.1321" x2="146.0879" y2="28.1321" gradientTransform="matrix(0.9969 7.890000e-02 -7.890000e-02 0.9969 4.1459 -7.16)">
				<stop  offset="0" style="stop-color:#00A8DE"/>
				<stop  offset="0.2" style="stop-color:#333391"/>
				<stop  offset="0.4" style="stop-color:#E91388"/>
				<stop  offset="0.6" style="stop-color:#EB2D2E"/>
				<stop  offset="0.8" style="stop-color:#FDE92B"/>
				<stop  offset="1" style="stop-color:#009E54"/>
			</linearGradient>
			<path style="fill:url(#SVGID_00000143594881354357084600000005712867525840476033_);" d="M120,19c-0.2-0.4-0.4-0.8-0.6-1.2
				c-2.1-3.8-4.6-6-7.4-6.4c-2.9-0.4-6,0.9-9.1,4c-2.5,2.5-5.1,6.5-7.6,10.3c-1.4,2.2-2.8,4.3-4.1,6.2c-4.2,5.7-8.2,8.7-12.6,9.3
				c-3.7,0.5-7.8-0.5-13.3-3.3c-1.7-0.9-3.5-2-5.3-3.1c-3.7-2.3-7.6-4.7-11.2-5.1c-3.8-0.4-7.6,1.9-11.5,4.3
				c-1.7,1.1-3.6,2.2-5.5,3.2c-4.5,2.3-9.3,4.2-13.6,3c-1.1-0.3-2.2-0.6-3.4-0.9c-4.5-1.1-9.7-2.4-14.5-5.8
				c-0.1-0.1-0.3-0.2-0.4-0.3v0.1c0.1,0.1,0.2,0.2,0.3,0.2c4.8,3.3,9.9,4.7,14.5,5.8c1.2,0.3,2.3,0.6,3.4,0.9
				c4.3,1.2,9.1-0.7,13.7-3c1.9-1,3.7-2.1,5.5-3.2c3.9-2.4,7.6-4.8,11.4-4.3c3.5,0.4,7.4,2.8,11.1,5.1c1.7,1.1,3.5,2.2,5.3,3.1
				c5.5,2.8,9.6,3.8,13.3,3.3c4.4-0.6,8.5-3.6,12.7-9.4c1.3-1.8,2.8-4,4.1-6.2c2.5-3.9,5-7.8,7.5-10.3c3.1-3.1,6.2-4.4,9-4
				c2.8,0.4,5.3,2.6,7.3,6.4c0.3,0.5,0.5,1,0.7,1.4V19z"/>
		</g>
		<g>
			
				<linearGradient id="SVGID_00000140727122975921572110000011122120270675272361_" gradientUnits="userSpaceOnUse" x1="-16.2162" y1="28.0953" x2="147.0207" y2="28.0953" gradientTransform="matrix(0.9969 7.890000e-02 -7.890000e-02 0.9969 4.1459 -7.16)">
				<stop  offset="0" style="stop-color:#00A8DE"/>
				<stop  offset="0.2" style="stop-color:#333391"/>
				<stop  offset="0.4" style="stop-color:#E91388"/>
				<stop  offset="0.6" style="stop-color:#EB2D2E"/>
				<stop  offset="0.8" style="stop-color:#FDE92B"/>
				<stop  offset="1" style="stop-color:#009E54"/>
			</linearGradient>
			<path style="fill:url(#SVGID_00000140727122975921572110000011122120270675272361_);" d="M120,17.3c-2-3.4-4.3-5.4-7-5.8
				c-2.8-0.5-5.7,0.7-8.8,3.6c-2.6,2.4-5.4,6.6-8,10.6c-1.3,2-2.5,3.8-3.7,5.5C88.3,36.8,84.4,40,80,41c-3.8,0.9-8.1,0.1-13.3-2.4
				c-2-0.9-4-2.2-6-3.5c-3.5-2.2-7.1-4.5-10.5-4.9c-4.1-0.5-8,1.7-12.4,4.1c-1.5,0.8-3,1.7-4.6,2.4c-4.8,2.3-9.4,4.3-13.7,3.4
				c-0.9-0.2-1.8-0.4-2.7-0.6c-5.1-1-10.3-2.1-15.4-5.5c-0.4-0.3-0.9-0.6-1.3-0.9v0.1c0.4,0.3,0.8,0.6,1.2,0.9
				c5.1,3.5,10.4,4.5,15.5,5.6c0.9,0.2,1.8,0.4,2.7,0.6c4.3,0.9,8.9-1.1,13.8-3.4c1.6-0.8,3.1-1.6,4.6-2.4c4.4-2.4,8.3-4.6,12.3-4.1
				c3.4,0.4,7,2.6,10.5,4.8c2,1.2,4,2.5,6,3.5c5.3,2.5,9.6,3.3,13.4,2.4c4.4-1,8.4-4.2,12.6-10c1.2-1.7,2.4-3.5,3.7-5.5
				c2.6-4,5.3-8.1,8-10.5c3-2.8,6-4,8.7-3.5c2.7,0.5,5,2.5,7,6V17.3z"/>
		</g>
		<g>
			
				<linearGradient id="SVGID_00000090272832926483111570000007512477145330424492_" gradientUnits="userSpaceOnUse" x1="-15.4226" y1="28.1684" x2="147.9526" y2="28.1684" gradientTransform="matrix(0.9969 7.890000e-02 -7.890000e-02 0.9969 4.1459 -7.16)">
				<stop  offset="0" style="stop-color:#00A8DE"/>
				<stop  offset="0.2" style="stop-color:#333391"/>
				<stop  offset="0.4" style="stop-color:#E91388"/>
				<stop  offset="0.6" style="stop-color:#EB2D2E"/>
				<stop  offset="0.8" style="stop-color:#FDE92B"/>
				<stop  offset="1" style="stop-color:#009E54"/>
			</linearGradient>
			<path style="fill:url(#SVGID_00000090272832926483111570000007512477145330424492_);" d="M120,15.9c-1.7-2.4-3.7-3.9-5.9-4.3
				c-2.7-0.5-5.5,0.5-8.5,3.1c-2.8,2.4-5.7,6.7-8.4,10.8c-1.1,1.7-2.2,3.3-3.2,4.7c-4.2,5.9-8.2,9.2-12.4,10.6
				c-4,1.2-8.2,0.8-13.4-1.5c-2.2-1-4.5-2.4-6.7-3.7c-3.3-2-6.7-4.2-9.9-4.7c-4.4-0.7-8.6,1.4-13.5,3.8c-1.2,0.6-2.4,1.2-3.6,1.8
				c-4.9,2.3-9.4,3.6-13.7,3.8c-6.1,0.3-12.5-1.6-18.5-5.6c-0.7-0.5-1.5-1-2.2-1.5v0.1c0.7,0.5,1.4,1,2.1,1.5c6,4,12.4,5.9,18.5,5.6
				c4.3-0.2,8.8-1.5,13.8-3.8c1.3-0.6,2.5-1.2,3.7-1.8c4.8-2.4,9-4.5,13.4-3.8c3.2,0.5,6.6,2.6,9.8,4.7c2.2,1.4,4.5,2.8,6.7,3.8
				c5.2,2.2,9.5,2.7,13.5,1.5c4.3-1.3,8.2-4.7,12.5-10.6c1.1-1.5,2.1-3,3.2-4.7c2.8-4.1,5.6-8.4,8.4-10.8c2.9-2.5,5.8-3.6,8.4-3.1
				c2.2,0.4,4.2,1.9,5.9,4.4V15.9z"/>
		</g>
		<g>
			
				<linearGradient id="SVGID_00000098905275744693414790000013878882500574199722_" gradientUnits="userSpaceOnUse" x1="-14.6285" y1="28.2605" x2="148.885" y2="28.2605" gradientTransform="matrix(0.9969 7.890000e-02 -7.890000e-02 0.9969 4.1459 -7.16)">
				<stop  offset="0" style="stop-color:#00A8DE"/>
				<stop  offset="0.2" style="stop-color:#333391"/>
				<stop  offset="0.4" style="stop-color:#E91388"/>
				<stop  offset="0.6" style="stop-color:#EB2D2E"/>
				<stop  offset="0.8" style="stop-color:#FDE92B"/>
				<stop  offset="1" style="stop-color:#009E54"/>
			</linearGradient>
			<path style="fill:url(#SVGID_00000098905275744693414790000013878882500574199722_);" d="M120,14.8c-1.5-1.7-3.1-2.7-4.8-3.1
				c-2.6-0.5-5.3,0.3-8.1,2.6c-3,2.4-6,6.9-8.9,11.2c-0.9,1.4-1.8,2.7-2.7,4c-4.3,6-8.2,9.5-12.3,11.2c-4,1.6-8.5,1.4-13.5-0.5
				c-2.5-1-5-2.5-7.4-4c-3.2-2-6.3-3.9-9.3-4.5c-4.8-1-9.5,1.1-14.9,3.6c-0.7,0.3-1.5,0.7-2.3,1.1c-5.4,2.4-9.8,3.8-13.8,4.2
				c-6.2,0.7-12.7-1.1-18.8-5C2,34.7,1,34,0,33.3v0.1c1,0.7,2,1.4,3,2.1c6.1,3.9,12.6,5.7,18.9,5c4-0.4,8.4-1.8,13.8-4.2
				c0.8-0.4,1.6-0.7,2.3-1.1c5.4-2.5,10-4.7,14.8-3.6c3,0.6,6,2.5,9.2,4.5c2.4,1.5,4.9,3.1,7.4,4c5.1,2,9.5,2.2,13.6,0.5
				c4.2-1.7,8.1-5.2,12.4-11.2c0.9-1.2,1.8-2.6,2.7-4c2.9-4.3,5.9-8.7,8.9-11.1c2.8-2.3,5.5-3.2,8-2.6c1.8,0.4,3.4,1.4,4.9,3.1V14.8
				z"/>
		</g>
		<g>
			
				<linearGradient id="SVGID_00000170960196885638402520000008167810380530895037_" gradientUnits="userSpaceOnUse" x1="-13.8341" y1="28.3672" x2="149.8166" y2="28.3672" gradientTransform="matrix(0.9969 7.890000e-02 -7.890000e-02 0.9969 4.1459 -7.16)">
				<stop  offset="0" style="stop-color:#00A8DE"/>
				<stop  offset="0.2" style="stop-color:#333391"/>
				<stop  offset="0.4" style="stop-color:#E91388"/>
				<stop  offset="0.6" style="stop-color:#EB2D2E"/>
				<stop  offset="0.8" style="stop-color:#FDE92B"/>
				<stop  offset="1" style="stop-color:#009E54"/>
			</linearGradient>
			<path style="fill:url(#SVGID_00000170960196885638402520000008167810380530895037_);" d="M120,13.9c-1.2-1.1-2.4-1.8-3.8-2.1
				c-2.4-0.6-5.1,0.2-7.8,2.2c-3.2,2.4-6.4,7-9.5,11.5c-0.8,1.1-1.5,2.2-2.2,3.2c-4.3,6.1-8.2,9.9-12.2,11.8
				c-4.1,2-8.6,2.1-13.6,0.4c-2.7-1-5.5-2.6-8.1-4.3c-3-1.9-5.8-3.6-8.6-4.4c-5.3-1.4-10.7,0.9-16.9,3.6L37,35.9
				c-4.5,2-9.3,3.9-13.8,4.6c-6.4,1-13-0.6-19.1-4.4c-1.4-0.9-2.7-1.8-4-2.8v0.1c1.3,1,2.6,1.9,3.9,2.7c6.2,3.9,12.8,5.5,19.2,4.5
				C27.7,39.9,32.5,38,37,36l0.4-0.2c6.2-2.7,11.5-5,16.8-3.6c2.8,0.7,5.6,2.5,8.6,4.3c2.7,1.6,5.4,3.3,8.1,4.3
				c5,1.8,9.5,1.6,13.7-0.4c4-1.9,7.9-5.7,12.3-11.8c0.7-1,1.4-2,2.2-3.2c3.1-4.5,6.3-9.1,9.4-11.5c2.7-2,5.3-2.7,7.7-2.2
				c1.3,0.3,2.6,1,3.8,2.1V13.9z"/>
		</g>
		<g>
			
				<linearGradient id="SVGID_00000145054257124792721610000006354318280895141558_" gradientUnits="userSpaceOnUse" x1="-13.0391" y1="28.4837" x2="150.7491" y2="28.4837" gradientTransform="matrix(0.9969 7.890000e-02 -7.890000e-02 0.9969 4.1459 -7.16)">
				<stop  offset="0" style="stop-color:#00A8DE"/>
				<stop  offset="0.2" style="stop-color:#333391"/>
				<stop  offset="0.4" style="stop-color:#E91388"/>
				<stop  offset="0.6" style="stop-color:#EB2D2E"/>
				<stop  offset="0.8" style="stop-color:#FDE92B"/>
				<stop  offset="1" style="stop-color:#009E54"/>
			</linearGradient>
			<path style="fill:url(#SVGID_00000145054257124792721610000006354318280895141558_);" d="M120,13.2c-0.9-0.6-1.8-1.1-2.7-1.3
				c-2.3-0.6-4.8,0-7.5,1.8c-3.4,2.3-6.9,7.4-10,11.9c-0.6,0.8-1.1,1.6-1.6,2.3C93.7,34.2,90,38,86.1,40.2
				c-4.2,2.4-8.7,2.8-13.7,1.3c-3-0.9-5.9-2.8-8.8-4.6c-2.8-1.7-5.4-3.4-8-4.2C50,31,44.5,33,38.3,35.6c-0.4,0.2-0.8,0.3-1.1,0.5
				c-4.5,1.9-8.8,3.7-12.8,4.5c-6.5,1.3-13.2,0-19.5-3.9c-1.7-1-3.3-2.2-4.9-3.4v0.1c1.5,1.2,3.2,2.4,4.8,3.4
				c6.3,3.9,13.1,5.2,19.6,3.9c4-0.8,8.3-2.6,12.8-4.5c0.4-0.2,0.8-0.3,1.1-0.5c6.1-2.6,11.7-4.6,17.2-2.8c2.6,0.8,5.2,2.5,8,4.2
				c2.9,1.8,5.8,3.6,8.8,4.6c5,1.6,9.5,1.1,13.8-1.3c3.9-2.2,7.7-6.1,12.2-12.4c0.5-0.7,1.1-1.5,1.6-2.3c3.1-4.5,6.6-9.6,10-11.9
				c2.6-1.8,5.1-2.4,7.4-1.8c1,0.2,1.9,0.7,2.7,1.3V13.2z"/>
		</g>
		<g>
			
				<linearGradient id="SVGID_00000158732556246622162320000008387043457271081113_" gradientUnits="userSpaceOnUse" x1="-12.2439" y1="28.6059" x2="151.6815" y2="28.6059" gradientTransform="matrix(0.9969 7.890000e-02 -7.890000e-02 0.9969 4.1459 -7.16)">
				<stop  offset="0" style="stop-color:#00A8DE"/>
				<stop  offset="0.2" style="stop-color:#333391"/>
				<stop  offset="0.4" style="stop-color:#E91388"/>
				<stop  offset="0.6" style="stop-color:#EB2D2E"/>
				<stop  offset="0.8" style="stop-color:#FDE92B"/>
				<stop  offset="1" style="stop-color:#009E54"/>
			</linearGradient>
			<path style="fill:url(#SVGID_00000158732556246622162320000008387043457271081113_);" d="M120,12.6c-0.5-0.3-1.1-0.5-1.6-0.7
				c-2.2-0.6-4.6-0.2-7.1,1.4c-3.6,2.3-7.4,7.6-10.6,12.3c-0.3,0.5-0.7,1-1,1.4c-4.6,6.6-8.3,10.6-12.1,13
				c-4.3,2.8-8.8,3.5-13.8,2.2c-3.2-0.9-6.4-2.9-9.5-4.8c-2.6-1.6-5-3.1-7.4-4c-2.6-1-5.3-1.2-8.3-0.8c-2.6,0.4-5.4,1.2-9,2.7
				c-1.4,0.6-2.8,1.2-4.1,1.7c-3.4,1.5-6.7,2.9-9.8,3.6c-6.6,1.6-13.4,0.5-19.8-3.3c-2-1.2-4-2.6-5.8-4.1v0.1
				c1.8,1.5,3.7,2.9,5.7,4.1c6.4,3.8,13.3,5,19.9,3.4c3.1-0.8,6.4-2.2,9.8-3.7c1.3-0.6,2.7-1.2,4.1-1.7c5.6-2.3,11.5-4,17.3-1.9
				c2.4,0.9,4.8,2.4,7.3,4c3.1,2,6.3,4,9.5,4.9c2.6,0.7,5.1,0.8,7.5,0.4c2.2-0.4,4.3-1.3,6.4-2.6c3.8-2.4,7.5-6.5,12.1-13.1
				c0.3-0.5,0.7-0.9,1-1.4c3.3-4.7,7-10.1,10.6-12.3c2.5-1.5,4.8-2,7-1.4c0.6,0.2,1.1,0.4,1.7,0.7V12.6z"/>
		</g>
		<g>
			
				<linearGradient id="SVGID_00000022518053440166011500000003854278756189041062_" gradientUnits="userSpaceOnUse" x1="-11.4484" y1="28.724" x2="152.6127" y2="28.724" gradientTransform="matrix(0.9969 7.890000e-02 -7.890000e-02 0.9969 4.1459 -7.16)">
				<stop  offset="0" style="stop-color:#00A8DE"/>
				<stop  offset="0.2" style="stop-color:#333391"/>
				<stop  offset="0.4" style="stop-color:#E91388"/>
				<stop  offset="0.6" style="stop-color:#EB2D2E"/>
				<stop  offset="0.8" style="stop-color:#FDE92B"/>
				<stop  offset="1" style="stop-color:#009E54"/>
			</linearGradient>
			<path style="fill:url(#SVGID_00000022518053440166011500000003854278756189041062_);" d="M120,12.2c-0.2-0.1-0.4-0.1-0.6-0.2
				c-2.1-0.7-4.4-0.3-6.8,1c-3.9,2.2-7.8,7.8-11.3,12.8l-0.3,0.5c-4.8,6.9-8.4,11-12,13.6c-4.3,3.2-9,4.2-13.9,3.1
				c-3.5-0.8-6.9-3-10.2-5.1c-2.3-1.5-4.5-2.9-6.7-3.8c-4.9-2.1-10.3-1.8-17.4,1c-2,0.8-4,1.7-5.9,2.5c-2.8,1.3-5.5,2.5-8.1,3.2
				c-6.7,2-13.7,1-20.1-2.8c-2.3-1.3-4.5-3-6.7-4.9v0.1c2.2,1.9,4.4,3.5,6.6,4.8c3.3,1.9,6.7,3.1,10.2,3.6c3.4,0.5,6.8,0.2,10.1-0.8
				c2.6-0.8,5.3-2,8.1-3.3c1.9-0.9,3.8-1.7,5.9-2.5c7.1-2.8,12.4-3.1,17.3-1c2.2,0.9,4.4,2.3,6.7,3.8c3.3,2.1,6.7,4.3,10.3,5.2
				c2.6,0.6,5.1,0.6,7.5,0c2.2-0.5,4.4-1.6,6.4-3.1c3.6-2.6,7.2-6.7,12-13.7l0.3-0.5c3.5-5,7.4-10.6,11.2-12.8
				c2.3-1.3,4.6-1.6,6.7-1c0.2,0.1,0.4,0.1,0.6,0.2V12.2z"/>
		</g>
		<g>
			
				<linearGradient id="SVGID_00000052793428680493649390000014501555522523477401_" gradientUnits="userSpaceOnUse" x1="-10.6527" y1="28.8432" x2="153.5454" y2="28.8432" gradientTransform="matrix(0.9969 7.890000e-02 -7.890000e-02 0.9969 4.1459 -7.16)">
				<stop  offset="0" style="stop-color:#00A8DE"/>
				<stop  offset="0.2" style="stop-color:#333391"/>
				<stop  offset="0.4" style="stop-color:#E91388"/>
				<stop  offset="0.6" style="stop-color:#EB2D2E"/>
				<stop  offset="0.8" style="stop-color:#FDE92B"/>
				<stop  offset="1" style="stop-color:#009E54"/>
			</linearGradient>
			<path style="fill:url(#SVGID_00000052793428680493649390000014501555522523477401_);" d="M120,11.8c-1.9-0.5-3.9-0.3-5.9,0.8
				c-4.2,2.1-8.5,8.3-11.6,12.8c-4.3,6.2-8,11-11.9,14.3c-4.4,3.6-9.1,5-14,4c-3.8-0.8-7.4-3.1-10.9-5.5c-2.1-1.4-4.1-2.7-6.1-3.6
				c-5.2-2.5-10.8-2.5-17.5,0c-2.5,0.9-4.8,2.1-7.1,3.1c-2.4,1.2-4.7,2.3-7,3c-6.8,2.3-13.9,1.5-20.5-2.2C5,37.1,2.4,35.2,0,33v0.2
				c2.4,2.2,5,4.1,7.5,5.6c3.3,1.9,6.8,3,10.3,3.4c3.5,0.4,6.9,0,10.3-1.2c2.3-0.8,4.6-1.9,7-3c2.3-1.1,4.6-2.2,7.1-3.1
				c6.6-2.5,12.2-2.5,17.4,0c2,0.9,4,2.2,6.1,3.6c3.5,2.3,7.2,4.7,11,5.5c0.6,0.1,1.3,0.2,1.9,0.3c4.2,0.3,8.3-1.1,12.2-4.3
				c3.9-3.2,7.6-8,11.9-14.3c3.1-4.5,7.4-10.7,11.6-12.8c2.1-1,4-1.3,5.9-0.8V11.8z"/>
		</g>
		<g>
			
				<linearGradient id="SVGID_00000167375409808734894580000012722079902061418150_" gradientUnits="userSpaceOnUse" x1="-9.8568" y1="28.9542" x2="154.4771" y2="28.9542" gradientTransform="matrix(0.9969 7.890000e-02 -7.890000e-02 0.9969 4.1459 -7.16)">
				<stop  offset="0" style="stop-color:#00A8DE"/>
				<stop  offset="0.2" style="stop-color:#333391"/>
				<stop  offset="0.4" style="stop-color:#E91388"/>
				<stop  offset="0.6" style="stop-color:#EB2D2E"/>
				<stop  offset="0.8" style="stop-color:#FDE92B"/>
				<stop  offset="1" style="stop-color:#009E54"/>
			</linearGradient>
			<path style="fill:url(#SVGID_00000167375409808734894580000012722079902061418150_);" d="M120,11.6c-1.4-0.2-3,0-4.5,0.7
				c-4.1,1.8-8.1,7.3-11.6,12.4C99.6,30.9,96,36,92.1,39.5c-4.5,4.1-9.2,5.7-14.1,4.9c-4-0.7-7.9-3.3-11.7-5.8
				c-1.9-1.3-3.7-2.5-5.4-3.4c-2.7-1.5-5.5-2.2-8.3-2.4c-2.9-0.2-5.9,0.3-9.2,1.5c-2.8,1-5.4,2.3-7.9,3.6c-2.2,1.1-4.2,2.2-6.2,3
				c-6.8,2.6-14.2,2-20.8-1.7c-2.9-1.6-5.9-3.9-8.5-6.5v0.2c2.6,2.6,5.5,4.8,8.5,6.4c3.3,1.9,6.9,2.9,10.4,3.2c0,0,0,0,0.1,0
				c3.5,0.3,7-0.3,10.4-1.5c2-0.8,4.1-1.8,6.3-3c2.5-1.3,5.1-2.6,7.9-3.6c6.3-2.3,12-2,17.4,0.9c1.8,0.9,3.5,2.1,5.4,3.4
				c3.8,2.5,7.6,5.1,11.7,5.8c0.4,0.1,0.8,0.1,1.3,0.2c4.5,0.4,8.8-1.4,12.9-5.1c3.9-3.6,7.5-8.6,11.8-14.9
				c3.5-5.1,7.5-10.6,11.6-12.3c1.5-0.7,3-0.9,4.5-0.7V11.6z"/>
		</g>
		<g>
			
				<linearGradient id="SVGID_00000058553887662738075220000002897839674501191307_" gradientUnits="userSpaceOnUse" x1="-9.0607" y1="29.0558" x2="155.4091" y2="29.0558" gradientTransform="matrix(0.9969 7.890000e-02 -7.890000e-02 0.9969 4.1459 -7.16)">
				<stop  offset="0" style="stop-color:#00A8DE"/>
				<stop  offset="0.2" style="stop-color:#333391"/>
				<stop  offset="0.4" style="stop-color:#E91388"/>
				<stop  offset="0.6" style="stop-color:#EB2D2E"/>
				<stop  offset="0.8" style="stop-color:#FDE92B"/>
				<stop  offset="1" style="stop-color:#009E54"/>
			</linearGradient>
			<path style="fill:url(#SVGID_00000058553887662738075220000002897839674501191307_);" d="M120,11.4c-1,0-2,0.1-3.1,0.5
				c-4.1,1.5-8.2,6.9-11.6,11.9c-0.3,0.5-0.6,1-1,1.4c-3.8,5.6-7.1,10.5-10.7,14.1c-4.5,4.5-9.3,6.5-14.1,5.8
				c-4.3-0.6-8.4-3.4-12.4-6.2c-1.7-1.2-3.2-2.2-4.8-3.2c-5.7-3.3-11.5-3.9-17.6-1.8c-3,1-5.8,2.6-8.4,4c-2,1.1-3.8,2.1-5.7,2.9
				c-6.9,2.9-14.4,2.5-21.2-1.1c-3.3-1.8-6.5-4.4-9.4-7.4v0.2c2.9,3,6.1,5.5,9.4,7.3c6.8,3.7,14.3,4.1,21.3,1.1
				c1.9-0.8,3.8-1.8,5.7-2.9c2.7-1.5,5.4-3,8.4-4c6.1-2.1,11.8-1.5,17.5,1.8c1.6,0.9,3.1,2,4.8,3.1c4,2.8,8.1,5.6,12.4,6.2
				c0.2,0,0.5,0.1,0.7,0.1c4.7,0.4,9.2-1.6,13.5-5.9c3.6-3.6,6.9-8.5,10.7-14.1c0.3-0.5,0.6-0.9,1-1.4c3.4-5,7.5-10.4,11.6-11.9
				c1.1-0.4,2.1-0.6,3.1-0.5V11.4z"/>
		</g>
		<g>
			
				<linearGradient id="SVGID_00000007405407298080830310000015274631372349072312_" gradientUnits="userSpaceOnUse" x1="-8.2645" y1="29.1953" x2="156.3408" y2="29.1953" gradientTransform="matrix(0.9969 7.890000e-02 -7.890000e-02 0.9969 4.1459 -7.16)">
				<stop  offset="0" style="stop-color:#00A8DE"/>
				<stop  offset="0.2" style="stop-color:#333391"/>
				<stop  offset="0.4" style="stop-color:#E91388"/>
				<stop  offset="0.6" style="stop-color:#EB2D2E"/>
				<stop  offset="0.8" style="stop-color:#FDE92B"/>
				<stop  offset="1" style="stop-color:#009E54"/>
			</linearGradient>
			<path style="fill:url(#SVGID_00000007405407298080830310000015274631372349072312_);" d="M120,11.2c-0.6,0-1.1,0.2-1.7,0.3
				c-4.3,1.3-8.5,6.8-11.6,11.5c-0.8,1.3-1.7,2.5-2.4,3.7c-3.2,4.9-6,9.1-9.2,12.5c-4.6,4.9-9.4,7.2-14.2,6.7
				c-4.6-0.4-8.9-3.6-13.1-6.6c-1.4-1-2.8-2-4.1-2.9c-2.9-1.8-5.6-3-8.4-3.5c-3.1-0.6-6.1-0.3-9.3,0.7c-3.1,1-6.1,2.8-8.9,4.4
				c-1.8,1.1-3.6,2.1-5.3,2.9c-7,3.3-14.6,3.1-21.5-0.6C6.6,38.5,3,35.6,0,32.2v0.2c0.2,0.2,0.4,0.4,0.6,0.6
				c2.9,3.2,6.3,5.8,9.7,7.6c6.9,3.7,14.6,3.9,21.6,0.6c1.8-0.8,3.5-1.9,5.3-2.9c2.8-1.7,5.7-3.4,8.9-4.4c5.8-1.9,11.6-1,17.5,2.8
				c1.3,0.9,2.7,1.8,4.1,2.9c4.2,3,8.5,6.1,13.1,6.6c0.1,0,0.1,0,0.2,0c4.8,0.4,9.6-1.9,14.1-6.8c3.1-3.4,5.9-7.6,9.2-12.5
				c0.8-1.2,1.6-2.4,2.4-3.7c3.1-4.6,7.3-10.1,11.5-11.4c0.6-0.2,1.1-0.3,1.7-0.3V11.2z"/>
		</g>
		<g>
			
				<linearGradient id="SVGID_00000133487032373722638540000001587210347302917819_" gradientUnits="userSpaceOnUse" x1="-7.4681" y1="29.3693" x2="157.2722" y2="29.3693" gradientTransform="matrix(0.9969 7.890000e-02 -7.890000e-02 0.9969 4.1459 -7.16)">
				<stop  offset="0" style="stop-color:#00A8DE"/>
				<stop  offset="0.2" style="stop-color:#333391"/>
				<stop  offset="0.4" style="stop-color:#E91388"/>
				<stop  offset="0.6" style="stop-color:#EB2D2E"/>
				<stop  offset="0.8" style="stop-color:#FDE92B"/>
				<stop  offset="1" style="stop-color:#009E54"/>
			</linearGradient>
			<path style="fill:url(#SVGID_00000133487032373722638540000001587210347302917819_);" d="M120,11.2c-0.1,0-0.2,0-0.3,0.1
				c-4.5,1.1-8.8,6.8-11.6,11c-1.2,1.8-2.3,3.5-3.4,5.2c-2.7,4.2-5.3,8.3-8.1,11.5c-4.6,5.4-9.4,7.9-14.3,7.6c-0.1,0-0.1,0-0.2,0
				c-4.8-0.4-9.3-3.7-13.6-7c-1.2-0.9-2.3-1.8-3.5-2.5c-6.3-4.3-11.9-5.5-17.7-3.7c-3.3,1-6.3,2.9-9.2,4.8c-1.7,1.1-3.4,2.1-5,3
				c-7.1,3.6-14.8,3.6-21.8,0C7.1,39,3.2,35.7,0,31.7v0.2c3.2,3.9,7.1,7.2,11.2,9.3c7,3.6,14.8,3.6,21.9,0c1.7-0.9,3.3-1.9,5.1-3
				c2.9-1.8,5.9-3.8,9.2-4.8c5.7-1.8,11.3-0.6,17.6,3.7c1.1,0.8,2.3,1.6,3.5,2.5c4.3,3.3,8.8,6.6,13.7,7c0.1,0,0.1,0,0.2,0
				c4.9,0.3,9.8-2.3,14.4-7.7c2.8-3.3,5.4-7.3,8.1-11.5c1.1-1.7,2.2-3.4,3.4-5.2c2.8-4.2,7.1-9.9,11.5-11c0.1,0,0.2,0,0.3-0.1V11.2z
				"/>
		</g>
		<g>
			
				<linearGradient id="SVGID_00000104674489174301446630000013977238175636465332_" gradientUnits="userSpaceOnUse" x1="-6.6717" y1="29.586" x2="158.2039" y2="29.586" gradientTransform="matrix(0.9969 7.890000e-02 -7.890000e-02 0.9969 4.1459 -7.16)">
				<stop  offset="0" style="stop-color:#00A8DE"/>
				<stop  offset="0.2" style="stop-color:#333391"/>
				<stop  offset="0.4" style="stop-color:#E91388"/>
				<stop  offset="0.6" style="stop-color:#EB2D2E"/>
				<stop  offset="0.8" style="stop-color:#FDE92B"/>
				<stop  offset="1" style="stop-color:#009E54"/>
			</linearGradient>
			<path style="fill:url(#SVGID_00000104674489174301446630000013977238175636465332_);" d="M120,11.2c-3.1,1.1-6.6,4.5-10.5,10.3
				c-1.5,2.3-2.9,4.5-4.2,6.6c-2.4,3.9-4.7,7.6-7.2,10.7c-4.6,5.8-9.5,8.7-14.4,8.5c-5.2-0.1-9.9-3.9-14.5-7.5
				c-1-0.8-1.9-1.5-2.8-2.2c-3-2.2-5.8-3.7-8.4-4.5c-3.2-1-6.3-1-9.3-0.1c-3.4,1-6.5,3.1-9.5,5.1c-1.7,1.1-3.2,2.2-4.8,3
				c-7.2,3.9-15,4.1-22.2,0.5c-4.5-2.3-8.7-6-12.1-10.6v0.2c3.4,4.5,7.6,8.2,12.1,10.5c3.6,1.8,7.3,2.7,11.2,2.6
				c3.8-0.1,7.5-1.1,11.1-3.1c1.6-0.9,3.2-1.9,4.8-3.1c3-2,6.1-4.1,9.5-5.1c7.3-2.2,13.6,1.6,17.6,4.6c0.9,0.7,1.9,1.4,2.8,2.2
				c4.4,3.5,9,7.1,14,7.5c0.2,0,0.4,0,0.6,0c2.6,0.1,5.3-0.7,7.9-2.4c2.2-1.4,4.5-3.5,6.6-6.2c2.5-3.2,4.8-6.8,7.2-10.7
				c1.3-2.2,2.7-4.4,4.2-6.6c3.9-5.8,7.3-9.1,10.4-10.2V11.2z"/>
		</g>
		<g>
			
				<linearGradient id="SVGID_00000052789585716365566640000010474248769290673047_" gradientUnits="userSpaceOnUse" x1="-5.8751" y1="29.8615" x2="159.1357" y2="29.8615" gradientTransform="matrix(0.9969 7.890000e-02 -7.890000e-02 0.9969 4.1459 -7.16)">
				<stop  offset="0" style="stop-color:#00A8DE"/>
				<stop  offset="0.2" style="stop-color:#333391"/>
				<stop  offset="0.4" style="stop-color:#E91388"/>
				<stop  offset="0.6" style="stop-color:#EB2D2E"/>
				<stop  offset="0.8" style="stop-color:#FDE92B"/>
				<stop  offset="1" style="stop-color:#009E54"/>
			</linearGradient>
			<path style="fill:url(#SVGID_00000052789585716365566640000010474248769290673047_);" d="M120,11.3c-2.8,1.3-5.8,4.4-9.1,9.4
				c-1.7,2.6-3.3,5.3-4.8,7.8c-2.2,3.6-4.2,7.1-6.5,10.2c-4.7,6.3-9.6,9.4-14.5,9.5c-5.5,0-10.5-4-15.2-8c-0.8-0.6-1.5-1.2-2.2-1.8
				c-4.6-3.7-10.7-7.6-17.8-5.6c-3.5,1-6.6,3.2-9.7,5.4c-1.5,1.1-3.1,2.2-4.7,3.1c-7.1,4.2-15.3,4.6-22.5,1.1
				C8.1,40,3.5,35.7,0,30.5v0.2c3.5,5.2,8,9.4,13,11.8c3.6,1.8,7.4,2.6,11.4,2.4c3.9-0.2,7.7-1.4,11.2-3.5c1.6-0.9,3.1-2,4.7-3.1
				c3.1-2.2,6.2-4.4,9.7-5.4c7-2,13.1,1.9,17.7,5.6c0.7,0.6,1.4,1.2,2.2,1.8c4.5,3.7,9.2,7.6,14.4,8c0.3,0,0.6,0,0.9,0
				c2.7,0,5.3-0.9,8-2.8c2.3-1.6,4.5-3.8,6.6-6.7c2.3-3.1,4.3-6.5,6.5-10.2c1.5-2.6,3.1-5.2,4.8-7.8c3.2-4.9,6.2-8,9-9.3V11.3z"/>
		</g>
		<g>
			
				<linearGradient id="SVGID_00000129204730122967214140000017187422850449838464_" gradientUnits="userSpaceOnUse" x1="-5.0784" y1="30.2048" x2="160.0669" y2="30.2048" gradientTransform="matrix(0.9969 7.890000e-02 -7.890000e-02 0.9969 4.1459 -7.16)">
				<stop  offset="0" style="stop-color:#00A8DE"/>
				<stop  offset="0.2" style="stop-color:#333391"/>
				<stop  offset="0.4" style="stop-color:#E91388"/>
				<stop  offset="0.6" style="stop-color:#EB2D2E"/>
				<stop  offset="0.8" style="stop-color:#FDE92B"/>
				<stop  offset="1" style="stop-color:#009E54"/>
			</linearGradient>
			<path style="fill:url(#SVGID_00000129204730122967214140000017187422850449838464_);" d="M120,11.5c-2.4,1.5-5,4.3-7.6,8.3
				c-1.9,2.9-3.6,5.9-5.3,8.8c-2,3.5-3.9,6.8-6,9.8c-3.2,4.6-8.4,10.1-14.6,10.4c-5.8,0.2-11.2-4.4-16-8.5c-0.5-0.4-1-0.9-1.6-1.3
				c-5-4.3-11-8.4-17.8-6.5c-3.5,1-6.8,3.4-9.9,5.7c-1.5,1.1-3,2.3-4.5,3.2c-7.2,4.5-15.5,5.1-22.8,1.6C8.5,40.4,3.6,35.6,0,29.6
				v0.2c3.6,6,8.5,10.7,13.9,13.3c3.7,1.8,7.6,2.5,11.5,2.2c4-0.3,7.8-1.6,11.4-3.9c1.5-1,3.1-2.1,4.5-3.2c3.1-2.3,6.3-4.8,9.8-5.7
				c6.8-1.8,12.8,2.3,17.8,6.5c0.5,0.4,1,0.9,1.6,1.3c2.4,2.1,5,4.3,7.6,5.9c3,1.9,5.8,2.7,8.4,2.6c2.7-0.1,5.4-1.2,8-3.2
				c2.3-1.7,4.5-4.2,6.6-7.2c2.1-3,4-6.3,6-9.8c1.7-2.9,3.4-5.9,5.3-8.8c2.6-4,5.2-6.8,7.6-8.3V11.5z"/>
		</g>
		<g>
			
				<linearGradient id="SVGID_00000017498563884799452520000004798000416074329762_" gradientUnits="userSpaceOnUse" x1="-4.2816" y1="30.6039" x2="160.9993" y2="30.6039" gradientTransform="matrix(0.9969 7.890000e-02 -7.890000e-02 0.9969 4.1459 -7.16)">
				<stop  offset="0" style="stop-color:#00A8DE"/>
				<stop  offset="0.2" style="stop-color:#333391"/>
				<stop  offset="0.4" style="stop-color:#E91388"/>
				<stop  offset="0.6" style="stop-color:#EB2D2E"/>
				<stop  offset="0.8" style="stop-color:#FDE92B"/>
				<stop  offset="1" style="stop-color:#009E54"/>
			</linearGradient>
			<path style="fill:url(#SVGID_00000017498563884799452520000004798000416074329762_);" d="M120,11.9c-0.3,0.2-0.6,0.5-0.9,0.7
				c-1.7,1.5-3.5,3.7-5.3,6.5c-2,3.1-3.8,6.5-5.6,9.7c-1.8,3.4-3.6,6.6-5.5,9.5c-3.2,4.9-8.4,10.9-14.7,11.3
				c-6.1,0.4-11.7-4.7-16.7-9.2c-0.3-0.3-0.6-0.6-0.9-0.8c-2.2-2-5.2-4.6-8.5-6.2c-3.3-1.6-6.4-2.1-9.5-1.3c-3.6,0.9-6.9,3.5-10,6
				c-1.4,1.1-2.9,2.3-4.4,3.3c-7.3,4.9-15.7,5.7-23.2,2.2C8.9,40.9,3.6,35.5,0,28.6v0.2c1.3,2.5,2.9,4.8,4.6,6.9
				c3,3.6,6.5,6.4,10.2,8.1c7.5,3.5,15.9,2.7,23.3-2.2c1.5-1,3-2.2,4.4-3.3c3.2-2.5,6.4-5.1,10-6c6.6-1.7,12.4,2.6,17.8,7.4
				c0.3,0.3,0.6,0.6,0.9,0.8c2.5,2.3,5.2,4.7,7.9,6.5c3.2,2,6,2.9,8.8,2.7c6.3-0.4,11.5-6.4,14.8-11.3c2-3,3.7-6.2,5.6-9.5
				c1.8-3.2,3.6-6.5,5.6-9.7c1.8-2.7,3.6-4.9,5.3-6.4c0.3-0.2,0.5-0.5,0.8-0.7V11.9z"/>
		</g>
		<g>
			
				<linearGradient id="SVGID_00000048474475261373459040000018069777354407689875_" gradientUnits="userSpaceOnUse" x1="-3.4847" y1="31.0776" x2="161.9299" y2="31.0776" gradientTransform="matrix(0.9969 7.890000e-02 -7.890000e-02 0.9969 4.1459 -7.16)">
				<stop  offset="0" style="stop-color:#00A8DE"/>
				<stop  offset="0.2" style="stop-color:#333391"/>
				<stop  offset="0.4" style="stop-color:#E91388"/>
				<stop  offset="0.6" style="stop-color:#EB2D2E"/>
				<stop  offset="0.8" style="stop-color:#FDE92B"/>
				<stop  offset="1" style="stop-color:#009E54"/>
			</linearGradient>
			<path style="fill:url(#SVGID_00000048474475261373459040000018069777354407689875_);" d="M120,12.4c-1.9,1.7-3.5,3.9-4.8,5.9
				c-2.1,3.3-4,6.9-5.8,10.4c-1.6,3.2-3.4,6.4-5.2,9.4c-3.3,5.2-8.5,11.6-14.8,12.2c-6.5,0.6-12.3-4.9-17.4-9.9l-0.2-0.2
				c-2.5-2.3-5.4-5-8.5-6.7c-3.4-1.9-6.5-2.4-9.5-1.7c-3.7,0.9-7,3.6-10.1,6.3c-1.4,1.2-2.9,2.4-4.4,3.5c-7.4,5.2-15.9,6.2-23.5,2.7
				C9.3,41.4,3.6,35.2,0,27.3v0.3c1.5,3.2,3.3,6.1,5.4,8.7c3,3.7,6.6,6.5,10.3,8.2c3.7,1.7,7.8,2.3,11.9,1.9c4-0.5,8.1-2.1,11.7-4.6
				c1.5-1,2.9-2.3,4.4-3.5c3.2-2.7,6.5-5.4,10.1-6.3c6.7-1.6,12.7,3.5,17.9,8.4l0.2,0.2c4.6,4.5,9.8,9.5,15.6,9.9c0.6,0,1.3,0,1.9,0
				c6.3-0.6,11.6-7,14.9-12.2c1.9-3,3.6-6.2,5.2-9.4c1.8-3.5,3.7-7.1,5.8-10.4c1.3-2,2.9-4.1,4.7-5.8V12.4z"/>
		</g>
		<g>
			
				<linearGradient id="SVGID_00000090996832728503271750000012808592483850555819_" gradientUnits="userSpaceOnUse" x1="-2.6876" y1="31.6403" x2="162.8616" y2="31.6403" gradientTransform="matrix(0.9969 7.890000e-02 -7.890000e-02 0.9969 4.1459 -7.16)">
				<stop  offset="0" style="stop-color:#00A8DE"/>
				<stop  offset="0.2" style="stop-color:#333391"/>
				<stop  offset="0.4" style="stop-color:#E91388"/>
				<stop  offset="0.6" style="stop-color:#EB2D2E"/>
				<stop  offset="0.8" style="stop-color:#FDE92B"/>
				<stop  offset="1" style="stop-color:#009E54"/>
			</linearGradient>
			<path style="fill:url(#SVGID_00000090996832728503271750000012808592483850555819_);" d="M120,13c-1.1,1.2-2.3,2.7-3.4,4.4
				c-2.2,3.5-4.2,7.4-6,11.1c-1.6,3.1-3.2,6.4-4.9,9.3c-3.3,5.5-8.5,12.3-14.9,13.1C84,51.9,77.9,45.7,73,40.8
				c-2.6-2.7-5.5-5.4-8.5-7.2c-3.4-2.1-6.5-2.8-9.5-2.1c-3.7,0.8-7,3.8-10.3,6.6c-1.4,1.2-2.9,2.5-4.3,3.6
				c-7.5,5.5-16.1,6.7-23.8,3.3C9.5,41.8,3.6,34.8,0,25.6v0.3c1.6,4,3.7,7.7,6.2,10.8c3,3.7,6.6,6.6,10.4,8.3
				c3.8,1.7,7.9,2.3,12.1,1.7c4.1-0.6,8.2-2.3,11.9-5c1.5-1.1,2.9-2.4,4.3-3.6c3.2-2.8,6.5-5.7,10.2-6.5c3-0.7,6.1,0,9.5,2.1
				c3,1.8,5.8,4.6,8.5,7.2c2.9,2.9,5.5,5.5,8.4,7.4c3.4,2.3,6.4,3.2,9.4,2.8c6.4-0.8,11.7-7.6,15-13.1c1.8-3,3.4-6.2,4.9-9.3
				c1.9-3.8,3.8-7.6,6-11.1c1.1-1.7,2.2-3.2,3.3-4.4V13z"/>
		</g>
	</g>
</g>
</svg>
